<?xml version="1.0" encoding="utf-8"?>
<!-- Generator: Adobe Illustrator 21.0.2, SVG Export Plug-In . SVG Version: 6.00 Build 0)  -->
<svg xmlns="http://www.w3.org/2000/svg" xmlns:xlink="http://www.w3.org/1999/xlink" version="1.1" id="Layer_1" x="0px" y="0px" viewBox="0 0 48 48" style="enable-background:new 0 0 48 48;" xml:space="preserve" width="48px" height="48px">
<g id="surface1">
	<path style="fill:#7CB342;" d="M12,29c0,1.1-0.9,2-2,2s-2-0.9-2-2v-9c0-1.1,0.9-2,2-2s2,0.9,2,2V29z"/>
	<path style="fill:#7CB342;" d="M40,29c0,1.1-0.9,2-2,2s-2-0.9-2-2v-9c0-1.1,0.9-2,2-2s2,0.9,2,2V29z"/>
	<path style="fill:#7CB342;" d="M22,40c0,1.1-0.9,2-2,2s-2-0.9-2-2v-9c0-1.1,0.9-2,2-2s2,0.9,2,2V40z"/>
	<path style="fill:#7CB342;" d="M30,40c0,1.1-0.9,2-2,2s-2-0.9-2-2v-9c0-1.1,0.9-2,2-2s2,0.9,2,2V40z"/>
	<path style="fill:#7CB342;" d="M14,18v15c0,1.1,0.9,2,2,2h16c1.1,0,2-0.9,2-2V18H14z"/>
	<path style="fill:#7CB342;" d="M24,8c-6,0-9.7,3.6-10,8h20C33.7,11.6,30,8,24,8z M20,13.6c-0.6,0-1-0.4-1-1c0-0.6,0.4-1,1-1   s1,0.4,1,1C21,13.1,20.6,13.6,20,13.6z M28,13.6c-0.6,0-1-0.4-1-1c0-0.6,0.4-1,1-1s1,0.4,1,1C29,13.1,28.6,13.6,28,13.6z"/>
	<path style="fill:#7CB342;" d="M28.3,10.5c-0.2,0-0.4-0.1-0.6-0.2c-0.5-0.3-0.6-0.9-0.3-1.4l1.7-2.5c0.3-0.5,0.9-0.6,1.4-0.3   c0.5,0.3,0.6,0.9,0.3,1.4l-1.7,2.5C29,10.3,28.7,10.5,28.3,10.5z"/>
	<path style="fill:#7CB342;" d="M19.3,10.1c-0.3,0-0.7-0.2-0.8-0.5l-1.3-2.1c-0.3-0.5-0.2-1.1,0.3-1.4c0.5-0.3,1.1-0.2,1.4,0.3   l1.3,2.1c0.3,0.5,0.2,1.1-0.3,1.4C19.7,10,19.5,10.1,19.3,10.1z"/>
</g>
</svg>
