<?xml version="1.0" encoding="UTF-8"?>
<svg xmlns="http://www.w3.org/2000/svg" xmlns:xlink="http://www.w3.org/1999/xlink" viewBox="0 0 48 48" version="1.1" width="48px" height="48px">
<g id="surface1">
<path style=" fill:#ECEFF1;" d="M 16 42 L 32 42 C 37.523438 42 42 37.523438 42 32 L 42 16 C 42 10.476563 37.523438 6 32 6 L 16 6 C 10.476563 6 6 10.476563 6 16 L 6 32 C 6 37.523438 10.476563 42 16 42 Z "/>
<path style=" fill:#FFC107;" d="M 13.546875 18.734375 C 13.546875 19.15625 13.203125 19.496094 12.78125 19.496094 C 12.363281 19.496094 12.019531 19.15625 12.019531 18.734375 C 12.019531 18.316406 12.363281 17.972656 12.78125 17.972656 C 13.203125 17.972656 13.546875 18.316406 13.546875 18.734375 Z "/>
<path style=" fill:#FF5722;" d="M 15.980469 21.808594 L 17.425781 21.199219 C 18.105469 19.980469 19.261719 19.273438 20.757813 19.273438 C 21.097656 19.273438 21.417969 19.316406 21.71875 19.386719 L 23.09375 18.808594 C 22.414063 18.472656 21.640625 18.28125 20.757813 18.28125 C 18.367188 18.28125 16.664063 19.59375 15.980469 21.808594 Z "/>
<path style=" fill:#FF5722;" d="M 13.296875 22.945313 L 13.296875 21.375 L 12.273438 21.375 L 12.273438 23.378906 Z "/>
<path style=" fill:#F44336;" d="M 13.296875 25.734375 L 13.296875 22.945313 L 12.273438 23.378906 L 12.273438 26.164063 Z "/>
<path style=" fill:#F44336;" d="M 16.742188 24.148438 C 16.742188 22.980469 16.988281 21.984375 17.425781 21.199219 L 15.980469 21.808594 C 15.769531 22.507813 15.648438 23.285156 15.648438 24.148438 C 15.648438 24.347656 15.675781 24.53125 15.6875 24.722656 L 16.75 24.273438 C 16.75 24.230469 16.742188 24.191406 16.742188 24.148438 Z "/>
<path style=" fill:#F44336;" d="M 30.421875 18.5 C 30.140625 18.585938 29.882813 18.695313 29.648438 18.828125 Z "/>
<path style=" fill:#F44336;" d="M 23.09375 18.808594 L 21.71875 19.386719 C 22.746094 19.621094 23.546875 20.25 24.070313 21.183594 L 25.09375 20.75 C 24.625 19.878906 23.941406 19.226563 23.09375 18.808594 Z "/>
<path style=" fill:#E91E63;" d="M 13.296875 28.519531 L 13.296875 25.734375 L 12.273438 26.164063 L 12.273438 28.953125 Z "/>
<path style=" fill:#E91E63;" d="M 30.421875 18.5 L 29.648438 18.828125 C 28.664063 19.375 28.070313 20.289063 28.070313 21.40625 C 28.070313 21.710938 28.117188 21.976563 28.1875 22.230469 L 29.21875 21.796875 C 29.183594 21.664063 29.164063 21.527344 29.164063 21.375 C 29.164063 20.148438 30.28125 19.257813 31.898438 19.257813 C 32.691406 19.257813 33.363281 19.472656 33.855469 19.839844 L 34.902344 19.394531 C 34.210938 18.710938 33.167969 18.28125 31.929688 18.28125 C 31.382813 18.28125 30.875 18.359375 30.421875 18.5 Z "/>
<path style=" fill:#E91E63;" d="M 16.75 24.273438 L 15.6875 24.722656 C 15.746094 25.683594 15.949219 26.535156 16.285156 27.257813 L 17.289063 26.835938 C 16.953125 26.121094 16.765625 25.261719 16.75 24.273438 Z "/>
<path style=" fill:#E91E63;" d="M 25.09375 20.75 L 24.070313 21.183594 C 24.449219 21.863281 24.671875 22.714844 24.726563 23.691406 L 25.789063 23.246094 C 25.695313 22.296875 25.46875 21.453125 25.09375 20.75 Z "/>
<path style=" fill:#9C27B0;" d="M 25.609375 26.109375 C 25.753906 25.507813 25.851563 24.859375 25.851563 24.148438 C 25.851563 23.832031 25.816406 23.539063 25.789063 23.242188 L 24.726563 23.691406 C 24.734375 23.84375 24.757813 23.988281 24.757813 24.148438 C 24.757813 25.117188 24.578125 25.957031 24.277344 26.671875 Z "/>
<path style=" fill:#9C27B0;" d="M 17.289063 26.835938 L 16.285156 27.257813 C 16.695313 28.136719 17.292969 28.824219 18.0625 29.296875 L 19.320313 28.765625 C 18.421875 28.425781 17.726563 27.765625 17.289063 26.835938 Z "/>
<path style=" fill:#9C27B0;" d="M 13.296875 28.519531 L 12.273438 28.953125 L 12.273438 29.789063 L 13.296875 29.789063 Z "/>
<path style=" fill:#9C27B0;" d="M 29.21875 21.796875 L 28.1875 22.230469 C 28.433594 23.097656 29.101563 23.703125 30.316406 24.121094 L 31.917969 23.445313 L 31.578125 23.359375 C 30.121094 22.996094 29.40625 22.527344 29.21875 21.796875 Z "/>
<path style=" fill:#9C27B0;" d="M 34.71875 21.273438 L 35.796875 21.273438 C 35.746094 20.542969 35.417969 19.898438 34.902344 19.394531 L 33.855469 19.835938 C 34.328125 20.1875 34.636719 20.683594 34.71875 21.273438 Z "/>
<path style=" fill:#3F51B5;" d="M 25.609375 26.109375 L 24.277344 26.671875 C 23.648438 28.148438 22.425781 29.03125 20.757813 29.03125 C 20.230469 29.03125 19.757813 28.929688 19.320313 28.765625 L 18.0625 29.296875 C 18.8125 29.753906 19.710938 30.023438 20.757813 30.023438 C 23.300781 30.023438 25.019531 28.539063 25.609375 26.109375 Z "/>
<path style=" fill:#3F51B5;" d="M 28.828125 26.859375 L 27.75 26.859375 C 27.777344 27.226563 27.878906 27.5625 28.015625 27.878906 L 29.003906 27.460938 C 28.917969 27.273438 28.851563 27.074219 28.828125 26.859375 Z "/>
<path style=" fill:#3F51B5;" d="M 32.695313 23.640625 L 31.914063 23.445313 L 30.316406 24.121094 C 30.550781 24.203125 30.804688 24.277344 31.078125 24.34375 L 32.367188 24.671875 C 33.082031 24.847656 33.625 25.070313 34.027344 25.34375 L 35.230469 24.832031 C 34.703125 24.316406 33.878906 23.933594 32.695313 23.640625 Z "/>
<path style=" fill:#03A9F4;" d="M 29.003906 27.464844 L 28.015625 27.882813 C 28.390625 28.75 29.152344 29.410156 30.179688 29.753906 L 31.871094 29.039063 C 30.492188 29.007813 29.414063 28.394531 29.003906 27.464844 Z "/>
<path style=" fill:#03A9F4;" d="M 35.914063 27.332031 C 35.949219 27.140625 35.976563 26.941406 35.976563 26.734375 C 35.976563 25.949219 35.742188 25.332031 35.230469 24.832031 L 34.027344 25.34375 C 34.605469 25.730469 34.882813 26.226563 34.882813 26.851563 C 34.882813 27.246094 34.753906 27.601563 34.535156 27.914063 Z "/>
<path style=" fill:#009688;" d="M 35.914063 27.332031 L 34.535156 27.914063 C 34.0625 28.597656 33.140625 29.046875 31.984375 29.046875 C 31.945313 29.046875 31.910156 29.042969 31.871094 29.039063 L 30.179688 29.753906 C 30.695313 29.925781 31.265625 30.023438 31.890625 30.023438 C 34.097656 30.023438 35.613281 28.964844 35.914063 27.332031 Z "/>
</g>
</svg>
