<svg data-name="Layer 1" xmlns="http://www.w3.org/2000/svg" viewBox="0 0 40 40">
  <path d="M40 8.48a.52.52 0 0 0-.68-.29l-3.9 1.36a40.62 40.62 0 0 1-5.22 1.37c-3.61.66-6.2-2.23-6.2-2.23a.54.54 0 0 0-.6-.17 8.06 8.06 0 0 0-.76.29 21.93 21.93 0 0 1 2.84-8 .44.44 0 0 0 0-.62.61.61 0 0 0-.68-.19 45.33 45.33 0 0 0-7 4.34C13 8.07 10.33 11.87 10 15.68c-.25 3.1 1.79 5.13 3.74 7l.34.33A7.52 7.52 0 0 1 13.6 29c-1.74 3.84-5.6 7.19-10.44 9-1.52.58-2.8 1-2.8 1a.52.52 0 0 0-.34.62.54.54 0 0 0 .51.38h.13a57.2 57.2 0 0 0 11-3.93l1-.5c6.2-3.22 9.51-7 9.89-11.16.26-2.65-1.31-4.43-3-6 2.16-3 9.16-5.38 9.21-5.38l6.91-2.4c2.21-.7 3.91-1.37 4-1.41a.5.5 0 0 0 .3-.7zm-18.37.87a17.07 17.07 0 0 0-5.86 4.55 5.49 5.49 0 0 1-.38-2.57c.26-2.85 3.31-6.16 3.78-6.66a49.92 49.92 0 0 1 4.66-2.93 21.36 21.36 0 0 0-2.25 7.61zM8.76 36.24a17.7 17.7 0 0 0 5.86-6.83 9.58 9.58 0 0 0 .93-4.8A5.07 5.07 0 0 1 17 28.38c-.38 3.64-4.88 6.24-4.92 6.28-1.08.57-2.19 1.09-3.32 1.58zm12.69-11.92c-.25 2.86-2.08 5.3-4.58 7.32A6.69 6.69 0 0 0 18 28.5c.26-2.73-1.65-4.63-3.52-6.45s-3.65-3.6-3.44-6.21c.26-3.06 2.17-5.79 4.5-8.1a8.74 8.74 0 0 0-1.27 3.55c-.34 3.35 1.91 5.42 3.86 7.24s3.52 3.27 3.31 5.79zm-2.76-6.7A15.66 15.66 0 0 1 16.27 15c1.83-2.93 6-4.84 7.22-5.33A8.59 8.59 0 0 0 28.24 12c-1.02.37-7.24 2.56-9.55 5.62z"/>
</svg>
