<?xml version="1.0" encoding="UTF-8"?>
<svg xmlns="http://www.w3.org/2000/svg" xmlns:xlink="http://www.w3.org/1999/xlink" viewBox="0 0 48 48" version="1.1" width="48px" height="48px">
<g id="surface1">
<path style=" fill:#03A9F4;" d="M 22.808594 24.511719 L 19.320313 36.589844 C 16.289063 34.535156 12.992188 32.84375 6 35.757813 L 9.410156 23.8125 L 9.449219 23.792969 C 16.414063 20.90625 19.785156 22.445313 22.808594 24.511719 Z "/>
<path style=" fill:#FFC107;" d="M 24.632813 25.679688 L 21.1875 37.621094 C 24.214844 39.691406 27.570313 41.339844 34.550781 38.429688 L 37.875 26.785156 C 30.761719 29.238281 27.660156 27.730469 24.632813 25.679688 Z "/>
<path style=" fill:#FF5722;" d="M 23.386719 22.335938 L 26.828125 10.371094 C 23.800781 8.3125 20.441406 6.65625 13.453125 9.574219 L 10.011719 21.589844 C 12.785156 20.4375 14.980469 19.90625 16.816406 19.925781 C 19.605469 19.941406 21.5625 21.101563 23.386719 22.335938 Z "/>
<path style=" fill:#7CB342;" d="M 28.644531 11.632813 L 25.203125 23.664063 C 28.222656 25.726563 31.871094 27.414063 38.5625 24.402344 L 42 12.414063 C 35.019531 15.316406 31.664063 13.6875 28.644531 11.632813 Z "/>
</g>
</svg>
