<?xml version="1.0" standalone="yes"?>

<svg version="1.1" viewBox="0.0 0.0 817.1469816272966 498.4514435695538" fill="none" stroke="none" stroke-linecap="square" stroke-miterlimit="10" xmlns="http://www.w3.org/2000/svg" xmlns:xlink="http://www.w3.org/1999/xlink"><clipPath id="p.0"><path d="m0 0l817.147 0l0 498.45145l-817.147 0l0 -498.45145z" clip-rule="nonzero"></path></clipPath><g clip-path="url(#p.0)"><path fill="#000000" fill-opacity="0.0" d="m0 0l817.147 0l0 498.45145l-817.147 0z" fill-rule="nonzero"></path><path fill="#000000" fill-opacity="0.0" d="m395.57217 63.55643l1.0393677 407.90552" fill-rule="nonzero"></path><path stroke="#000000" stroke-width="1.0" stroke-linejoin="round" stroke-linecap="butt" d="m395.57217 63.55643l1.0393677 407.90552" fill-rule="nonzero"></path><path fill="#000000" fill-opacity="0.0" d="m356.42783 20.868767l93.921265 0l0 51.2126l-93.921265 0z" fill-rule="nonzero"></path><path fill="#000000" d="m374.17783 46.588768l0 -8.25q0 -1.125 -0.125 -3.25l2.75 0q-0.125 2.375 -0.125 3.125l0 8.375l15.125 0q1.625 0 3.5 -0.125l0 2.5q-2.375 -0.125 -4.375 -0.125l-7.25 0q0.875 2.5 2.6875 4.875q1.8125 2.375 4.3125 3.9375q2.5 1.5625 4.5 2.1875q-1.625 1.0 -2.5 2.5q-2.625 -1.375 -4.875 -3.25q-2.25 -1.875 -4.0 -4.5625q-1.75 -2.6875 -2.625 -5.6875l-4.5 0l0 9.875q3.625 -2.25 4.875 -3.375q0.875 1.375 1.75 2.5q-2.375 1.125 -4.75 2.8125q-2.375 1.6875 -3.5 2.8125q-1.0 -1.375 -1.875 -2.375q1.0 -1.0 1.0 -2.625l0 -9.625l-2.875 0q-1.75 0 -4.0 0.125l0 -2.5q2.25 0.125 3.75 0.125l3.125 0zm15.75 -9.5q-1.375 1.125 -4.0625 3.8125q-2.6875 2.6875 -5.3125 5.1875q-1.125 -1.5 -1.875 -2.0q2.125 -1.5 4.75 -4.25q2.625 -2.75 4.0 -4.75q1.0 0.875 2.5 2.0z" fill-rule="nonzero"></path><path fill="#000000" d="m404.80283 52.963768l2.5 -1.0l0.625 2.125l-7.375 3.375q-0.125 0.875 -0.625 0.375l-1.375 -2.75l3.75 -1.25l0 -9.5l-3.0 0l0 -2.375l3.0 0l0 -6.625l2.375 0q1.0 0.125 0.125 0.75l0 5.875l2.875 0l0 2.375l-2.875 0l0 8.625zm18.5 -17.375q2.25 1.125 3.375 2.875l-1.875 1.875q-1.25 -1.875 -3.25 -3.0l1.75 -1.75zm-9.0 13.375l-3.25 0l0 3.0q0 6.75 -5.75 10.75l-1.625 -2.25q4.875 -3.125 4.875 -9.375l0 -10.625l9.375 0l0 -5.875l2.375 0.125q1.0 0.125 0.125 0.75l0 5.0l6.875 0l0 2.375l-6.75 0l0.125 2.5q0.125 3.625 0.5 7.125q2.0 -4.125 2.75 -7.375l2.5 1.25q0.25 0.5 -0.375 0.625q-2.0 5.625 -3.875 8.5q1.875 3.75 3.0 3.75q0.375 0 0.75 -3.625l2.375 1.375q-0.75 5.5 -2.375 5.5q-3.125 0 -5.5 -4.875q-3.125 3.875 -6.625 5.625l-1.375 -2.125q4.75 -2.875 6.875 -6.0q-0.875 -3.625 -1.125 -9.25l-0.125 -3.0l-7.0 0l0 3.75l5.5 0l-0.125 7.5q0 3.0 -1.875 3.0l-2.375 0l-0.25 -2.375l1.75 0q0.5 0 0.5 -0.5l0.125 -5.25z" fill-rule="nonzero"></path><path fill="#ffffff" d="m434.35434 232.02394l0 0c0 -8.645386 7.0084534 -15.65387 15.653839 -15.65387l132.8183 0c4.1516724 0 8.13324 1.6492462 11.068909 4.584915c2.935669 2.935669 4.5849 6.917282 4.5849 11.068954l0 62.61354c0 8.645386 -7.008423 15.65387 -15.653809 15.65387l-132.8183 0c-8.645386 0 -15.653839 -7.008484 -15.653839 -15.65387z" fill-rule="nonzero"></path><path stroke="#000000" stroke-width="1.0" stroke-linejoin="round" stroke-linecap="butt" d="m434.35434 232.02394l0 0c0 -8.645386 7.0084534 -15.65387 15.653839 -15.65387l132.8183 0c4.1516724 0 8.13324 1.6492462 11.068909 4.584915c2.935669 2.935669 4.5849 6.917282 4.5849 11.068954l0 62.61354c0 8.645386 -7.008423 15.65387 -15.653809 15.65387l-132.8183 0c-8.645386 0 -15.653839 -7.008484 -15.653839 -15.65387z" fill-rule="nonzero"></path><path fill="#000000" d="m503.11133 247.87494l-5.28125 -13.59375l1.953125 0l3.53125 9.875q0.4375 1.1875 0.71875 2.21875q0.3125 -1.109375 0.734375 -2.21875l3.671875 -9.875l1.84375 0l-5.328125 13.59375l-1.84375 0zm8.552948 0l0 -13.59375l5.1250305 0q1.359375 0 2.078125 0.125q1.0 0.171875 1.671875 0.640625q0.671875 0.46875 1.078125 1.3125q0.421875 0.84375 0.421875 1.84375q0 1.734375 -1.109375 2.9375q-1.09375 1.203125 -3.984375 1.203125l-3.484375 0l0 5.53125l-1.7969055 0zm1.7969055 -7.140625l3.515625 0q1.75 0 2.46875 -0.640625q0.734375 -0.65625 0.734375 -1.828125q0 -0.859375 -0.4375 -1.46875q-0.421875 -0.609375 -1.125 -0.796875q-0.453125 -0.125 -1.671875 -0.125l-3.484375 0l0 4.859375zm10.0372925 2.765625l1.6875 -0.140625q0.125 1.015625 0.5625 1.671875q0.4375 0.65625 1.359375 1.0625q0.9375 0.40625 2.09375 0.40625q1.03125 0 1.8125 -0.3125q0.796875 -0.3125 1.1875 -0.84375q0.390625 -0.53125 0.390625 -1.15625q0 -0.640625 -0.375 -1.109375q-0.375 -0.484375 -1.234375 -0.8125q-0.546875 -0.21875 -2.421875 -0.65625q-1.875 -0.453125 -2.625 -0.859375q-0.96875 -0.515625 -1.453125 -1.265625q-0.46875 -0.75 -0.46875 -1.6875q0 -1.03125 0.578125 -1.921875q0.59375 -0.90625 1.703125 -1.359375q1.125 -0.46875 2.5 -0.46875q1.515625 0 2.671875 0.484375q1.15625 0.484375 1.765625 1.4375q0.625 0.9375 0.671875 2.140625l-1.71875 0.125q-0.140625 -1.28125 -0.953125 -1.9375q-0.796875 -0.671875 -2.359375 -0.671875q-1.625 0 -2.375 0.609375q-0.75 0.59375 -0.75 1.4375q0 0.734375 0.53125 1.203125q0.515625 0.46875 2.703125 0.96875q2.203125 0.5 3.015625 0.875q1.1875 0.546875 1.75 1.390625q0.578125 0.828125 0.578125 1.921875q0 1.09375 -0.625 2.0625q-0.625 0.953125 -1.796875 1.484375q-1.15625 0.53125 -2.609375 0.53125q-1.84375 0 -3.09375 -0.53125q-1.25 -0.546875 -1.96875 -1.625q-0.703125 -1.078125 -0.734375 -2.453125z" fill-rule="nonzero"></path><path fill="#3c78d8" d="m477.51968 267.5933l0 0c0 -3.1427307 2.5476685 -5.690399 5.690399 -5.690399l66.41449 0c1.5091553 0 2.956543 0.5995178 4.0236816 1.666687c1.0671997 1.0671387 1.666687 2.5145264 1.666687 4.023712l0 22.760925c0 3.1427307 -2.5476685 5.690399 -5.6903687 5.690399l-66.41449 0c-3.1427307 0 -5.690399 -2.5476685 -5.690399 -5.690399z" fill-rule="nonzero"></path><path stroke="#ffffff" stroke-width="1.0" stroke-linejoin="round" stroke-linecap="butt" d="m477.51968 267.5933l0 0c0 -3.1427307 2.5476685 -5.690399 5.690399 -5.690399l66.41449 0c1.5091553 0 2.956543 0.5995178 4.0236816 1.666687c1.0671997 1.0671387 1.666687 2.5145264 1.666687 4.023712l0 22.760925c0 3.1427307 -2.5476685 5.690399 -5.6903687 5.690399l-66.41449 0c-3.1427307 0 -5.690399 -2.5476685 -5.690399 -5.690399z" fill-rule="nonzero"></path><path fill="#ffffff" d="m496.92123 284.83374l-4.4375 -11.453125l1.640625 0l2.96875 8.3125q0.359375 1.0 0.609375 1.875q0.265625 -0.9375 0.609375 -1.875l3.09375 -8.3125l1.546875 0l-4.484375 11.453125l-1.546875 0zm14.21875 -1.359375l0 1.359375l-7.578125 0q-0.015625 -0.515625 0.171875 -0.984375q0.28125 -0.765625 0.921875 -1.515625q0.640625 -0.75 1.84375 -1.734375q1.859375 -1.53125 2.515625 -2.421875q0.65625 -0.90625 0.65625 -1.703125q0 -0.828125 -0.59375 -1.40625q-0.59375 -0.578125 -1.5625 -0.578125q-1.015625 0 -1.625 0.609375q-0.609375 0.609375 -0.609375 1.6875l-1.453125 -0.140625q0.15625 -1.625 1.125 -2.46875q0.96875 -0.84375 2.59375 -0.84375q1.65625 0 2.609375 0.921875q0.96875 0.90625 0.96875 2.25q0 0.6875 -0.28125 1.359375q-0.28125 0.65625 -0.9375 1.390625q-0.65625 0.734375 -2.171875 2.015625q-1.265625 1.0625 -1.625 1.453125q-0.359375 0.375 -0.59375 0.75l5.625 0zm2.101532 1.359375l0 -11.453125l5.078125 0q1.53125 0 2.328125 0.3125q0.796875 0.296875 1.265625 1.078125q0.484375 0.78125 0.484375 1.734375q0 1.21875 -0.796875 2.0625q-0.78125 0.828125 -2.4375 1.046875q0.609375 0.296875 0.921875 0.578125q0.65625 0.609375 1.25 1.515625l2.0 3.125l-1.90625 0l-1.515625 -2.390625q-0.671875 -1.03125 -1.109375 -1.578125q-0.421875 -0.546875 -0.765625 -0.765625q-0.328125 -0.21875 -0.6875 -0.296875q-0.25 -0.0625 -0.84375 -0.0625l-1.75 0l0 5.09375l-1.515625 0zm1.515625 -6.40625l3.25 0q1.046875 0 1.625 -0.203125q0.59375 -0.21875 0.890625 -0.6875q0.3125 -0.484375 0.3125 -1.03125q0 -0.8125 -0.59375 -1.328125q-0.59375 -0.53125 -1.859375 -0.53125l-3.625 0l0 3.78125zm15.2421875 5.375q-0.78125 0.671875 -1.5 0.953125q-0.71875 0.265625 -1.546875 0.265625q-1.375 0 -2.109375 -0.671875q-0.734375 -0.671875 -0.734375 -1.703125q0 -0.609375 0.28125 -1.109375q0.28125 -0.515625 0.71875 -0.8125q0.453125 -0.3125 1.015625 -0.46875q0.421875 -0.109375 1.25 -0.203125q1.703125 -0.203125 2.515625 -0.484375q0 -0.296875 0 -0.375q0 -0.859375 -0.390625 -1.203125q-0.546875 -0.484375 -1.609375 -0.484375q-0.984375 0 -1.46875 0.359375q-0.46875 0.34375 -0.6875 1.21875l-1.375 -0.1875q0.1875 -0.875 0.609375 -1.421875q0.4375 -0.546875 1.25 -0.828125q0.8125 -0.296875 1.875 -0.296875q1.0625 0 1.71875 0.25q0.671875 0.25 0.984375 0.625q0.3125 0.375 0.4375 0.953125q0.078125 0.359375 0.078125 1.296875l0 1.875q0 1.96875 0.078125 2.484375q0.09375 0.515625 0.359375 1.0l-1.46875 0q-0.21875 -0.4375 -0.28125 -1.03125zm-0.109375 -3.140625q-0.765625 0.3125 -2.296875 0.53125q-0.875 0.125 -1.234375 0.28125q-0.359375 0.15625 -0.5625 0.46875q-0.1875 0.296875 -0.1875 0.65625q0 0.5625 0.421875 0.9375q0.4375 0.375 1.25 0.375q0.8125 0 1.4375 -0.34375q0.640625 -0.359375 0.9375 -0.984375q0.234375 -0.46875 0.234375 -1.40625l0 -0.515625zm3.5390625 7.375l-0.15625 -1.328125q0.453125 0.125 0.796875 0.125q0.46875 0 0.75 -0.15625q0.28125 -0.15625 0.46875 -0.4375q0.125 -0.203125 0.421875 -1.046875q0.046875 -0.109375 0.125 -0.34375l-3.140625 -8.3125l1.515625 0l1.71875 4.796875q0.34375 0.921875 0.609375 1.921875q0.234375 -0.96875 0.578125 -1.890625l1.765625 -4.828125l1.40625 0l-3.15625 8.4375q-0.5 1.375 -0.78125 1.890625q-0.375 0.6875 -0.859375 1.015625q-0.484375 0.328125 -1.15625 0.328125q-0.40625 0 -0.90625 -0.171875z" fill-rule="nonzero"></path><path fill="#cfe2f3" d="m29.503937 186.87946l0 0c0 -5.0648956 4.1059 -9.170792 9.170788 -9.170792l145.78441 0c2.4322357 0 4.764862 0.9662018 6.484726 2.6860657c1.7198486 1.7198486 2.6860657 4.052475 2.6860657 6.484726l0 36.682037c0 5.0648956 -4.1059113 9.170792 -9.170792 9.170792l-145.78441 0c-5.064888 0 -9.170788 -4.105896 -9.170788 -9.170792z" fill-rule="nonzero"></path><path stroke="#000000" stroke-width="1.0" stroke-linejoin="round" stroke-linecap="butt" d="m29.503937 186.87946l0 0c0 -5.0648956 4.1059 -9.170792 9.170788 -9.170792l145.78441 0c2.4322357 0 4.764862 0.9662018 6.484726 2.6860657c1.7198486 1.7198486 2.6860657 4.052475 2.6860657 6.484726l0 36.682037c0 5.0648956 -4.1059113 9.170792 -9.170792 9.170792l-145.78441 0c-5.064888 0 -9.170788 -4.105896 -9.170788 -9.170792z" fill-rule="nonzero"></path><path fill="#000000" d="m42.65872 212.14047l0 -13.59375l5.125 0q1.359375 0 2.078125 0.125q1.0 0.171875 1.671875 0.640625q0.671875 0.46875 1.078125 1.3125q0.421875 0.84375 0.421875 1.84375q0 1.734375 -1.109375 2.9375q-1.09375 1.203125 -3.984375 1.203125l-3.484375 0l0 5.53125l-1.796875 0zm1.796875 -7.140625l3.515625 0q1.75 0 2.46875 -0.640625q0.734375 -0.65625 0.734375 -1.828125q0 -0.859375 -0.4375 -1.46875q-0.421875 -0.609375 -1.125 -0.796875q-0.453125 -0.125 -1.671875 -0.125l-3.484375 0l0 4.859375zm20.349827 2.375l1.796875 0.453125q-0.5625 2.21875 -2.03125 3.390625q-1.4687538 1.15625 -3.5937538 1.15625q-2.203125 0 -3.578125 -0.890625q-1.375 -0.90625 -2.09375 -2.59375q-0.71875 -1.703125 -0.71875 -3.65625q0 -2.125 0.796875 -3.703125q0.8125 -1.578125 2.3125 -2.390625q1.5 -0.828125 3.296875 -0.828125q2.046875 0 3.4375038 1.046875q1.390625 1.03125 1.9375 2.90625l-1.765625 0.421875q-0.46875 -1.484375 -1.3750038 -2.15625q-0.90625 -0.6875 -2.265625 -0.6875q-1.5625 0 -2.625 0.75q-1.046875 0.75 -1.484375 2.03125q-0.421875 1.265625 -0.421875 2.609375q0 1.734375 0.5 3.03125q0.515625 1.28125 1.578125 1.921875q1.078125 0.640625 2.3125 0.640625q1.515625 0 2.5625 -0.859375q1.0468788 -0.875 1.4218788 -2.59375z" fill-rule="nonzero"></path><path fill="#3c78d8" d="m103.93964 193.84001l0 0c0 -3.1427307 2.547676 -5.690399 5.690399 -5.690399l66.414474 0c1.5091858 0 2.9565582 0.5995178 4.023712 1.6666718c1.0671692 1.0671539 1.666687 2.5145416 1.666687 4.0237274l0 22.760925c0 3.1427155 -2.5476837 5.690399 -5.690399 5.690399l-66.414474 0c-3.142723 0 -5.690399 -2.5476837 -5.690399 -5.690399z" fill-rule="nonzero"></path><path stroke="#ffffff" stroke-width="1.0" stroke-linejoin="round" stroke-linecap="butt" d="m103.93964 193.84001l0 0c0 -3.1427307 2.547676 -5.690399 5.690399 -5.690399l66.414474 0c1.5091858 0 2.9565582 0.5995178 4.023712 1.6666718c1.0671692 1.0671539 1.666687 2.5145416 1.666687 4.0237274l0 22.760925c0 3.1427155 -2.5476837 5.690399 -5.690399 5.690399l-66.414474 0c-3.142723 0 -5.690399 -2.5476837 -5.690399 -5.690399z" fill-rule="nonzero"></path><path fill="#ffffff" d="m123.34118 211.08047l-4.4375 -11.453125l1.640625 0l2.96875 8.3125q0.359375 1.0 0.609375 1.875q0.265625 -0.9375 0.609375 -1.875l3.09375 -8.3125l1.5468674 0l-4.4843674 11.453125l-1.546875 0zm14.218742 -1.359375l0 1.359375l-7.578125 0q-0.015625 -0.515625 0.171875 -0.984375q0.28125 -0.765625 0.921875 -1.515625q0.640625 -0.75 1.84375 -1.734375q1.859375 -1.53125 2.515625 -2.421875q0.65625 -0.90625 0.65625 -1.703125q0 -0.828125 -0.59375 -1.40625q-0.59375 -0.578125 -1.5625 -0.578125q-1.015625 0 -1.625 0.609375q-0.609375 0.609375 -0.609375 1.6875l-1.453125 -0.140625q0.15625 -1.625 1.125 -2.46875q0.96875 -0.84375 2.59375 -0.84375q1.65625 0 2.609375 0.921875q0.96875 0.90625 0.96875 2.25q0 0.6875 -0.28125 1.359375q-0.28125 0.65625 -0.9375 1.390625q-0.65625 0.734375 -2.171875 2.015625q-1.265625 1.0625 -1.625 1.453125q-0.359375 0.375 -0.59375 0.75l5.625 0zm2.1015625 1.359375l0 -11.453125l5.078125 0q1.53125 0 2.328125 0.3125q0.796875 0.296875 1.265625 1.078125q0.484375 0.78125 0.484375 1.734375q0 1.21875 -0.796875 2.0625q-0.78125 0.828125 -2.4375 1.046875q0.609375 0.296875 0.921875 0.578125q0.65625 0.609375 1.25 1.515625l2.0 3.125l-1.90625 0l-1.515625 -2.390625q-0.671875 -1.03125 -1.109375 -1.578125q-0.421875 -0.546875 -0.765625 -0.765625q-0.328125 -0.21875 -0.6875 -0.296875q-0.25 -0.0625 -0.84375 -0.0625l-1.75 0l0 5.09375l-1.515625 0zm1.515625 -6.40625l3.25 0q1.046875 0 1.625 -0.203125q0.59375 -0.21875 0.890625 -0.6875q0.3125 -0.484375 0.3125 -1.03125q0 -0.8125 -0.59375 -1.328125q-0.59375 -0.53125 -1.859375 -0.53125l-3.625 0l0 3.78125zm15.2421875 5.375q-0.78125 0.671875 -1.5 0.953125q-0.71875 0.265625 -1.546875 0.265625q-1.375 0 -2.109375 -0.671875q-0.734375 -0.671875 -0.734375 -1.703125q0 -0.609375 0.28125 -1.109375q0.28125 -0.515625 0.71875 -0.8125q0.453125 -0.3125 1.015625 -0.46875q0.421875 -0.109375 1.25 -0.203125q1.703125 -0.203125 2.515625 -0.484375q0 -0.296875 0 -0.375q0 -0.859375 -0.390625 -1.203125q-0.546875 -0.484375 -1.609375 -0.484375q-0.984375 0 -1.46875 0.359375q-0.46875 0.34375 -0.6875 1.21875l-1.375 -0.1875q0.1875 -0.875 0.609375 -1.421875q0.4375 -0.546875 1.25 -0.828125q0.8125 -0.296875 1.875 -0.296875q1.0625 0 1.71875 0.25q0.671875 0.25 0.984375 0.625q0.3125 0.375 0.4375 0.953125q0.078125 0.359375 0.078125 1.296875l0 1.875q0 1.96875 0.078125 2.484375q0.09375 0.515625 0.359375 1.0l-1.46875 0q-0.21875 -0.4375 -0.28125 -1.03125zm-0.109375 -3.140625q-0.765625 0.3125 -2.296875 0.53125q-0.875 0.125 -1.234375 0.28125q-0.359375 0.15625 -0.5625 0.46875q-0.1875 0.296875 -0.1875 0.65625q0 0.5625 0.421875 0.9375q0.4375 0.375 1.25 0.375q0.8125 0 1.4375 -0.34375q0.640625 -0.359375 0.9375 -0.984375q0.234375 -0.46875 0.234375 -1.40625l0 -0.515625zm3.5390625 7.375l-0.15625 -1.328125q0.453125 0.125 0.796875 0.125q0.46875 0 0.75 -0.15625q0.28125 -0.15625 0.46875 -0.4375q0.125 -0.203125 0.421875 -1.046875q0.046875 -0.109375 0.125 -0.34375l-3.140625 -8.3125l1.515625 0l1.71875 4.796875q0.34375 0.921875 0.609375 1.921875q0.234375 -0.96875 0.578125 -1.890625l1.765625 -4.828125l1.40625 0l-3.15625 8.4375q-0.5 1.375 -0.78125 1.890625q-0.375 0.6875 -0.859375 1.015625q-0.484375 0.328125 -1.15625 0.328125q-0.40625 0 -0.90625 -0.171875z" fill-rule="nonzero"></path><path fill="#cfe2f3" d="m29.503937 258.87946l0 0c0 -5.0648956 4.1059 -9.170792 9.170788 -9.170792l145.78441 0c2.4322357 0 4.764862 0.9662018 6.484726 2.6860657c1.7198486 1.7198486 2.6860657 4.052475 2.6860657 6.484726l0 36.682037c0 5.0648804 -4.1059113 9.170776 -9.170792 9.170776l-145.78441 0c-5.064888 0 -9.170788 -4.105896 -9.170788 -9.170776z" fill-rule="nonzero"></path><path stroke="#000000" stroke-width="1.0" stroke-linejoin="round" stroke-linecap="butt" d="m29.503937 258.87946l0 0c0 -5.0648956 4.1059 -9.170792 9.170788 -9.170792l145.78441 0c2.4322357 0 4.764862 0.9662018 6.484726 2.6860657c1.7198486 1.7198486 2.6860657 4.052475 2.6860657 6.484726l0 36.682037c0 5.0648804 -4.1059113 9.170776 -9.170792 9.170776l-145.78441 0c-5.064888 0 -9.170788 -4.105896 -9.170788 -9.170776z" fill-rule="nonzero"></path><path fill="#000000" d="m43.56497 270.7811q6.390625 -0.078125 12.09375 -1.484375l0.96875 1.1875q0.515625 0.671875 -0.375 0.4375q-2.375 0.53125 -4.75 0.75l0 2.671875l5.875 0l0 1.40625l-5.875 0l0 2.53125l7.421875 0l0 1.40625l-7.421875 0l0 4.453125q0 1.34375 -1.25 1.34375l-1.9375 0l-0.375 -1.640625l1.859375 0q0.21875 0 0.21875 -0.21875l0 -3.9375l-7.5625 0l0 -1.40625l7.5625 0l0 -2.53125l-6.0 0l0 -1.40625l6.0 0l0 -2.453125q-3.109375 0.296875 -6.078125 0.296875l-0.375 -1.40625zm23.156254 13.515625q2.75 -1.265625 2.75 -5.578125l0 -8.53125l5.78125 0l0 12.84375q0 0.59375 0.53125 0.59375l0.4375 0q0.375 0 0.453125 -0.53125l0.140625 -1.546875l1.5625 0.59375l-0.296875 1.84375q-0.15625 1.046875 -1.1875 1.046875l-1.78125 0q-1.34375 0 -1.34375 -1.265625l0 -12.171875l-2.8125 0l0 7.046875q0 5.34375 -3.1875 7.0625l-1.046875 -1.40625zm-0.4375 1.40625l-1.484375 0l0 -7.578125q-1.0468788 2.375 -2.6093788 4.078125l-0.953125 -1.625q2.9687538 -3.046875 3.4062538 -6.3125l-2.9687538 0l0 -1.40625l3.1250038 0l0 -3.9375l1.40625 0q0.734375 0.078125 0.078125 0.453125l0 3.484375l2.59375 0l0 1.40625l-2.59375 0l0 2.234375q1.328125 0.59375 2.671875 1.625l-0.828125 1.703125q-0.890625 -0.953125 -1.84375 -1.78125l0 7.65625z" fill-rule="nonzero"></path><path fill="#3c78d8" d="m103.93964 265.84l0 0c0 -3.1427002 2.547676 -5.690399 5.690399 -5.690399l66.414474 0c1.5091858 0 2.9565582 0.5995178 4.023712 1.666687c1.0671692 1.0671692 1.666687 2.5145264 1.666687 4.023712l0 22.760925c0 3.1427307 -2.5476837 5.6904297 -5.690399 5.6904297l-66.414474 0c-3.142723 0 -5.690399 -2.547699 -5.690399 -5.6904297z" fill-rule="nonzero"></path><path stroke="#ffffff" stroke-width="1.0" stroke-linejoin="round" stroke-linecap="butt" d="m103.93964 265.84l0 0c0 -3.1427002 2.547676 -5.690399 5.690399 -5.690399l66.414474 0c1.5091858 0 2.9565582 0.5995178 4.023712 1.666687c1.0671692 1.0671692 1.666687 2.5145264 1.666687 4.023712l0 22.760925c0 3.1427307 -2.5476837 5.6904297 -5.690399 5.6904297l-66.414474 0c-3.142723 0 -5.690399 -2.547699 -5.690399 -5.6904297z" fill-rule="nonzero"></path><path fill="#ffffff" d="m123.34118 283.08047l-4.4375 -11.453125l1.640625 0l2.96875 8.3125q0.359375 1.0 0.609375 1.875q0.265625 -0.9375 0.609375 -1.875l3.09375 -8.3125l1.5468674 0l-4.4843674 11.453125l-1.546875 0zm14.218742 -1.359375l0 1.359375l-7.578125 0q-0.015625 -0.515625 0.171875 -0.984375q0.28125 -0.765625 0.921875 -1.515625q0.640625 -0.75 1.84375 -1.734375q1.859375 -1.53125 2.515625 -2.421875q0.65625 -0.90625 0.65625 -1.703125q0 -0.828125 -0.59375 -1.40625q-0.59375 -0.578125 -1.5625 -0.578125q-1.015625 0 -1.625 0.609375q-0.609375 0.609375 -0.609375 1.6875l-1.453125 -0.140625q0.15625 -1.625 1.125 -2.46875q0.96875 -0.84375 2.59375 -0.84375q1.65625 0 2.609375 0.921875q0.96875 0.90625 0.96875 2.25q0 0.6875 -0.28125 1.359375q-0.28125 0.65625 -0.9375 1.390625q-0.65625 0.734375 -2.171875 2.015625q-1.265625 1.0625 -1.625 1.453125q-0.359375 0.375 -0.59375 0.75l5.625 0zm2.1015625 1.359375l0 -11.453125l5.078125 0q1.53125 0 2.328125 0.3125q0.796875 0.296875 1.265625 1.078125q0.484375 0.78125 0.484375 1.734375q0 1.21875 -0.796875 2.0625q-0.78125 0.828125 -2.4375 1.046875q0.609375 0.296875 0.921875 0.578125q0.65625 0.609375 1.25 1.515625l2.0 3.125l-1.90625 0l-1.515625 -2.390625q-0.671875 -1.03125 -1.109375 -1.578125q-0.421875 -0.546875 -0.765625 -0.765625q-0.328125 -0.21875 -0.6875 -0.296875q-0.25 -0.0625 -0.84375 -0.0625l-1.75 0l0 5.09375l-1.515625 0zm1.515625 -6.40625l3.25 0q1.046875 0 1.625 -0.203125q0.59375 -0.21875 0.890625 -0.6875q0.3125 -0.484375 0.3125 -1.03125q0 -0.8125 -0.59375 -1.328125q-0.59375 -0.53125 -1.859375 -0.53125l-3.625 0l0 3.78125zm15.2421875 5.375q-0.78125 0.671875 -1.5 0.953125q-0.71875 0.265625 -1.546875 0.265625q-1.375 0 -2.109375 -0.671875q-0.734375 -0.671875 -0.734375 -1.703125q0 -0.609375 0.28125 -1.109375q0.28125 -0.515625 0.71875 -0.8125q0.453125 -0.3125 1.015625 -0.46875q0.421875 -0.109375 1.25 -0.203125q1.703125 -0.203125 2.515625 -0.484375q0 -0.296875 0 -0.375q0 -0.859375 -0.390625 -1.203125q-0.546875 -0.484375 -1.609375 -0.484375q-0.984375 0 -1.46875 0.359375q-0.46875 0.34375 -0.6875 1.21875l-1.375 -0.1875q0.1875 -0.875 0.609375 -1.421875q0.4375 -0.546875 1.25 -0.828125q0.8125 -0.296875 1.875 -0.296875q1.0625 0 1.71875 0.25q0.671875 0.25 0.984375 0.625q0.3125 0.375 0.4375 0.953125q0.078125 0.359375 0.078125 1.296875l0 1.875q0 1.96875 0.078125 2.484375q0.09375 0.515625 0.359375 1.0l-1.46875 0q-0.21875 -0.4375 -0.28125 -1.03125zm-0.109375 -3.140625q-0.765625 0.3125 -2.296875 0.53125q-0.875 0.125 -1.234375 0.28125q-0.359375 0.15625 -0.5625 0.46875q-0.1875 0.296875 -0.1875 0.65625q0 0.5625 0.421875 0.9375q0.4375 0.375 1.25 0.375q0.8125 0 1.4375 -0.34375q0.640625 -0.359375 0.9375 -0.984375q0.234375 -0.46875 0.234375 -1.40625l0 -0.515625zm3.5390625 7.375l-0.15625 -1.328125q0.453125 0.125 0.796875 0.125q0.46875 0 0.75 -0.15625q0.28125 -0.15625 0.46875 -0.4375q0.125 -0.203125 0.421875 -1.046875q0.046875 -0.109375 0.125 -0.34375l-3.140625 -8.3125l1.515625 0l1.71875 4.796875q0.34375 0.921875 0.609375 1.921875q0.234375 -0.96875 0.578125 -1.890625l1.765625 -4.828125l1.40625 0l-3.15625 8.4375q-0.5 1.375 -0.78125 1.890625q-0.375 0.6875 -0.859375 1.015625q-0.484375 0.328125 -1.15625 0.328125q-0.40625 0 -0.90625 -0.171875z" fill-rule="nonzero"></path><path fill="#cfe2f3" d="m29.503937 330.87946l0 0c0 -5.0648804 4.1059 -9.170807 9.170788 -9.170807l145.78441 0c2.4322357 0 4.764862 0.96621704 6.484726 2.6860657c1.7198486 1.7198792 2.6860657 4.05249 2.6860657 6.484741l0 36.682037c0 5.0648804 -4.1059113 9.170776 -9.170792 9.170776l-145.78441 0c-5.064888 0 -9.170788 -4.105896 -9.170788 -9.170776z" fill-rule="nonzero"></path><path stroke="#000000" stroke-width="1.0" stroke-linejoin="round" stroke-linecap="butt" d="m29.503937 330.87946l0 0c0 -5.0648804 4.1059 -9.170807 9.170788 -9.170807l145.78441 0c2.4322357 0 4.764862 0.96621704 6.484726 2.6860657c1.7198486 1.7198792 2.6860657 4.05249 2.6860657 6.484741l0 36.682037c0 5.0648804 -4.1059113 9.170776 -9.170792 9.170776l-145.78441 0c-5.064888 0 -9.170788 -4.105896 -9.170788 -9.170776z" fill-rule="nonzero"></path><path fill="#000000" d="m56.25247 355.4686l0 -3.34375l-3.703125 0l0 3.34375l3.703125 0zm1.484375 2.015625l-1.484375 0l0 -0.828125l-3.703125 0l0 1.046875l-1.484375 0l0 -6.765625l6.671875 0l0 6.546875zm-5.265625 -13.8125q0.375 1.03125 1.859375 2.671875q1.328125 -1.78125 1.703125 -2.671875l-3.5625 0zm1.859375 4.75q-2.59375 2.375 -4.828125 3.1875l-0.671875 -1.484375q2.078125 -0.671875 4.53125 -2.8125q-0.59375 -0.59375 -1.5625 -2.15625q-0.734375 1.703125 -1.484375 2.453125l-1.109375 -1.125q1.78125 -2.375 2.75 -5.9375l1.5625 0.453125q0.296875 0.296875 -0.234375 0.375l-0.359375 0.890625l3.78125 0l0.21875 -0.375l1.1875 0.96875q0.296875 0.21875 -0.296875 0.4375q-1.03125 2.375 -2.453125 4.015625q2.53125 1.921875 4.3125 2.515625l-0.59375 1.640625q-1.78125 -0.59375 -4.75 -3.046875zm-5.421875 -6.6875l0 5.5l-1.859375 0l0 2.75l1.71875 0l0 1.40625l-1.71875 0l0 3.40625l2.609375 -0.8125l0.296875 1.34375l-6.828125 1.921875q-0.078125 0.59375 -0.375 0.296875l-0.59375 -1.625l0.890625 -0.15625l0 -6.90625l1.40625 0q0.59375 0.078125 0.078125 0.453125l0 6.078125l1.03125 -0.21875l0 -7.9375l-1.328125 0l-1.265625 0l0 -5.5l5.9375 0zm-1.484375 4.3125l0 -3.125l-2.96875 0l0 3.125l2.96875 0zm16.843754 8.90625l4.75 0l0 -3.859375l-4.75 0l0 3.859375zm0 -5.265625l4.75 0l0 -3.859375l-4.75 0l0 3.859375zm10.984375 0l0 -3.859375l-4.75 0l0 3.859375l4.75 0zm-4.75 5.265625l4.75 0l0 -3.859375l-4.75 0l0 3.859375zm-7.718754 2.59375l0 -13.140625l6.234379 0l0 -3.484375l1.421875 0q0.59375 0.078125 0.0625 0.453125l0 3.03125l6.234375 0l0 12.84375l-1.484375 0l0 -0.890625l-10.984375 0l0 1.1875l-1.4843788 0zm26.421879 -11.71875q0.59375 0.140625 0 0.4375q-0.140625 0.671875 -0.359375 1.265625l7.859375 0l0 1.40625l-5.640625 0q2.59375 1.78125 6.390625 2.453125l-0.375 1.5625q-1.484375 -0.296875 -2.078125 -0.59375l0 5.046875l-1.484375 0l0 -0.8125l-2.59375 0l0 1.03125l-1.484375 0l0 -5.9375l3.859375 0q-2.15625 -0.890625 -3.9375 -2.75l-1.1875 0q-1.1875 1.703125 -3.1875 2.75l2.96875 0l0 5.796875l-1.484375 0l0 -0.890625l-2.53125 0l0 1.109375l-1.484375 0l0 -4.90625q-0.671875 0.375 -2.0 0.671875l-0.515625 -1.5625q4.0 -0.59375 6.53125 -2.96875l-5.796875 0l0 -1.40625l6.6875 0q0.4375 -0.8125 0.59375 -1.78125l1.25 0.078125zm-1.484375 0.359375l-1.484375 0l0 -0.359375l-2.890625 0l0 0.65625l-1.484375 0l0 -5.1875l5.859375 0l0 4.890625zm1.859375 -4.890625l5.9375 0l0 4.890625l-1.484375 0l0 -0.359375l-2.96875 0l0 0.65625l-1.484375 0l0 -5.1875zm3.9375 14.09375l0 -2.515625l-2.59375 0l0 2.515625l2.59375 0zm-7.28125 -10.75l0 -2.15625l-2.890625 0l0 2.15625l2.890625 0zm7.796875 -2.15625l-2.96875 0l0 2.15625l2.96875 0l0 -2.15625zm-7.5625 12.90625l0 -2.515625l-2.53125 0l0 2.515625l2.53125 0z" fill-rule="nonzero"></path><path fill="#3c78d8" d="m103.93964 337.84l0 0c0 -3.1427002 2.547676 -5.690399 5.690399 -5.690399l66.414474 0c1.5091858 0 2.9565582 0.5995178 4.023712 1.666687c1.0671692 1.0671692 1.666687 2.5145264 1.666687 4.023712l0 22.760925c0 3.1427307 -2.5476837 5.6904297 -5.690399 5.6904297l-66.414474 0c-3.142723 0 -5.690399 -2.547699 -5.690399 -5.6904297z" fill-rule="nonzero"></path><path stroke="#ffffff" stroke-width="1.0" stroke-linejoin="round" stroke-linecap="butt" d="m103.93964 337.84l0 0c0 -3.1427002 2.547676 -5.690399 5.690399 -5.690399l66.414474 0c1.5091858 0 2.9565582 0.5995178 4.023712 1.666687c1.0671692 1.0671692 1.666687 2.5145264 1.666687 4.023712l0 22.760925c0 3.1427307 -2.5476837 5.6904297 -5.690399 5.6904297l-66.414474 0c-3.142723 0 -5.690399 -2.547699 -5.690399 -5.6904297z" fill-rule="nonzero"></path><path fill="#ffffff" d="m123.34118 355.08047l-4.4375 -11.453125l1.640625 0l2.96875 8.3125q0.359375 1.0 0.609375 1.875q0.265625 -0.9375 0.609375 -1.875l3.09375 -8.3125l1.5468674 0l-4.4843674 11.453125l-1.546875 0zm14.218742 -1.359375l0 1.359375l-7.578125 0q-0.015625 -0.515625 0.171875 -0.984375q0.28125 -0.765625 0.921875 -1.515625q0.640625 -0.75 1.84375 -1.734375q1.859375 -1.53125 2.515625 -2.421875q0.65625 -0.90625 0.65625 -1.703125q0 -0.828125 -0.59375 -1.40625q-0.59375 -0.578125 -1.5625 -0.578125q-1.015625 0 -1.625 0.609375q-0.609375 0.609375 -0.609375 1.6875l-1.453125 -0.140625q0.15625 -1.625 1.125 -2.46875q0.96875 -0.84375 2.59375 -0.84375q1.65625 0 2.609375 0.921875q0.96875 0.90625 0.96875 2.25q0 0.6875 -0.28125 1.359375q-0.28125 0.65625 -0.9375 1.390625q-0.65625 0.734375 -2.171875 2.015625q-1.265625 1.0625 -1.625 1.453125q-0.359375 0.375 -0.59375 0.75l5.625 0zm2.1015625 1.359375l0 -11.453125l5.078125 0q1.53125 0 2.328125 0.3125q0.796875 0.296875 1.265625 1.078125q0.484375 0.78125 0.484375 1.734375q0 1.21875 -0.796875 2.0625q-0.78125 0.828125 -2.4375 1.046875q0.609375 0.296875 0.921875 0.578125q0.65625 0.609375 1.25 1.515625l2.0 3.125l-1.90625 0l-1.515625 -2.390625q-0.671875 -1.03125 -1.109375 -1.578125q-0.421875 -0.546875 -0.765625 -0.765625q-0.328125 -0.21875 -0.6875 -0.296875q-0.25 -0.0625 -0.84375 -0.0625l-1.75 0l0 5.09375l-1.515625 0zm1.515625 -6.40625l3.25 0q1.046875 0 1.625 -0.203125q0.59375 -0.21875 0.890625 -0.6875q0.3125 -0.484375 0.3125 -1.03125q0 -0.8125 -0.59375 -1.328125q-0.59375 -0.53125 -1.859375 -0.53125l-3.625 0l0 3.78125zm15.2421875 5.375q-0.78125 0.671875 -1.5 0.953125q-0.71875 0.265625 -1.546875 0.265625q-1.375 0 -2.109375 -0.671875q-0.734375 -0.671875 -0.734375 -1.703125q0 -0.609375 0.28125 -1.109375q0.28125 -0.515625 0.71875 -0.8125q0.453125 -0.3125 1.015625 -0.46875q0.421875 -0.109375 1.25 -0.203125q1.703125 -0.203125 2.515625 -0.484375q0 -0.296875 0 -0.375q0 -0.859375 -0.390625 -1.203125q-0.546875 -0.484375 -1.609375 -0.484375q-0.984375 0 -1.46875 0.359375q-0.46875 0.34375 -0.6875 1.21875l-1.375 -0.1875q0.1875 -0.875 0.609375 -1.421875q0.4375 -0.546875 1.25 -0.828125q0.8125 -0.296875 1.875 -0.296875q1.0625 0 1.71875 0.25q0.671875 0.25 0.984375 0.625q0.3125 0.375 0.4375 0.953125q0.078125 0.359375 0.078125 1.296875l0 1.875q0 1.96875 0.078125 2.484375q0.09375 0.515625 0.359375 1.0l-1.46875 0q-0.21875 -0.4375 -0.28125 -1.03125zm-0.109375 -3.140625q-0.765625 0.3125 -2.296875 0.53125q-0.875 0.125 -1.234375 0.28125q-0.359375 0.15625 -0.5625 0.46875q-0.1875 0.296875 -0.1875 0.65625q0 0.5625 0.421875 0.9375q0.4375 0.375 1.25 0.375q0.8125 0 1.4375 -0.34375q0.640625 -0.359375 0.9375 -0.984375q0.234375 -0.46875 0.234375 -1.40625l0 -0.515625zm3.5390625 7.375l-0.15625 -1.328125q0.453125 0.125 0.796875 0.125q0.46875 0 0.75 -0.15625q0.28125 -0.15625 0.46875 -0.4375q0.125 -0.203125 0.421875 -1.046875q0.046875 -0.109375 0.125 -0.34375l-3.140625 -8.3125l1.515625 0l1.71875 4.796875q0.34375 0.921875 0.609375 1.921875q0.234375 -0.96875 0.578125 -1.890625l1.765625 -4.828125l1.40625 0l-3.15625 8.4375q-0.5 1.375 -0.78125 1.890625q-0.375 0.6875 -0.859375 1.015625q-0.484375 0.328125 -1.15625 0.328125q-0.40625 0 -0.90625 -0.171875z" fill-rule="nonzero"></path><path fill="#6aa84f" d="m242.94226 85.5042l0 0c0 -7.413231 6.009613 -13.422836 13.422852 -13.422836l74.66611 0c3.559967 0 6.974121 1.4141846 9.491394 3.9314575c2.517273 2.517273 3.9314575 5.9314194 3.9314575 9.491379l0 53.68975c0 7.4132385 -6.009613 13.422836 -13.422852 13.422836l-74.66611 0l0 0c-7.4132385 0 -13.422852 -6.009598 -13.422852 -13.422836z" fill-rule="nonzero"></path><path stroke="#000000" stroke-width="1.0" stroke-linejoin="round" stroke-linecap="butt" d="m242.94226 85.5042l0 0c0 -7.413231 6.009613 -13.422836 13.422852 -13.422836l74.66611 0c3.559967 0 6.974121 1.4141846 9.491394 3.9314575c2.517273 2.517273 3.9314575 5.9314194 3.9314575 9.491379l0 53.68975c0 7.4132385 -6.009613 13.422836 -13.422852 13.422836l-74.66611 0l0 0c-7.4132385 0 -13.422852 -6.009598 -13.422852 -13.422836z" fill-rule="nonzero"></path><path fill="#ffffff" d="m281.74503 114.14408q-0.890625 2.296875 -2.671875 4.3125l-0.8125 -1.125q1.703125 -2.078125 2.59375 -4.375q-1.109375 -1.625 -2.296875 -3.1875l0.75 -0.75q1.03125 1.1875 1.84375 2.3125q0.296875 -1.78125 0.453125 -3.640625l1.265625 0.296875q0.59375 0.21875 -0.078125 0.4375q-0.21875 1.78125 -0.59375 4.09375q1.03125 1.40625 1.921875 2.734375l-0.734375 1.265625q-0.8125 -1.1875 -1.640625 -2.375zm-3.859375 -7.5625l0 13.734375l-1.484375 0l0 -15.15625l15.375 0l0 13.8125q0 1.1875 -1.125 1.1875l-1.84375 0l-0.296875 -1.40625l1.546875 0q0.234375 0 0.234375 -0.234375l0 -11.9375l-12.40625 0zm8.765625 5.1875q0.4375 -2.21875 0.59375 -4.15625l1.1875 0.15625q0.734375 0.21875 0 0.515625q-0.21875 2.078125 -0.8125 4.59375q1.109375 1.5625 1.921875 2.96875l-0.734375 1.1875q-0.890625 -1.484375 -1.71875 -2.734375q-1.109375 2.890625 -2.59375 4.453125l-0.8125 -1.1875q1.484375 -1.5625 2.453125 -4.390625q-1.125 -1.78125 -2.234375 -3.109375l0.75 -0.8125q0.890625 1.03125 2.0 2.515625zm10.46875 -1.5625q0.515625 2.90625 0.8125 5.796875l-1.484375 0.140625q-0.296875 -2.734375 -0.890625 -5.640625l1.5625 -0.296875zm8.3125 -6.0l1.40625 0q0.59375 0.0625 0.078125 0.4375l0 2.96875l4.5156555 0l0 1.40625l-4.5156555 0l0 3.265625l3.921875 0l0 8.171875l-1.484375 0l0 -0.890625l-5.109375 0l0 1.046875l-1.484375 0l0 -8.328125l2.671875 0l0 -8.078125zm-2.96875 4.890625l-7.578125 0l0 -1.40625l3.1875 0l0 -3.34375l1.421875 0q0.59375 0.078125 0.0625 0.453125l0 2.890625l2.90625 0l0 1.40625zm-6.6875 9.875q-0.21875 0.75 -0.515625 0.078125l-0.515625 -1.484375l4.21875 -0.53125q0.59375 -3.625 0.75 -7.34375l1.859375 0.453125q0.65625 0.296875 -0.15625 0.515625q-0.296875 2.96875 -0.96875 6.234375l1.859375 -0.296875l0 1.328125l-6.53125 1.046875zm8.46875 -0.8125l5.109375 0l0 -4.453125l-5.109375 0l0 4.453125z" fill-rule="nonzero"></path><path fill="#cc0000" d="m673.6142 252.12888l0 0c0 -7.4132233 6.0095825 -13.422836 13.422791 -13.422836l74.66614 0c3.5599976 0 6.974121 1.4141846 9.491394 3.9314575c2.517273 2.517273 3.9314575 5.931427 3.9314575 9.491379l0 53.68976c0 7.4132385 -6.0095825 13.422821 -13.422852 13.422821l-74.66614 0l0 0c-7.413208 0 -13.422791 -6.0095825 -13.422791 -13.422821z" fill-rule="nonzero"></path><path stroke="#000000" stroke-width="1.0" stroke-linejoin="round" stroke-linecap="butt" d="m673.6142 252.12888l0 0c0 -7.4132233 6.0095825 -13.422836 13.422791 -13.422836l74.66614 0c3.5599976 0 6.974121 1.4141846 9.491394 3.9314575c2.517273 2.517273 3.9314575 5.931427 3.9314575 9.491379l0 53.68976c0 7.4132385 -6.0095825 13.422821 -13.422852 13.422821l-74.66614 0l0 0c-7.413208 0 -13.422791 -6.0095825 -13.422791 -13.422821z" fill-rule="nonzero"></path><path fill="#ffffff" d="m712.41693 280.76874q-0.890625 2.296875 -2.671875 4.3125l-0.8125 -1.125q1.703125 -2.078125 2.59375 -4.375q-1.109375 -1.625 -2.296875 -3.1875l0.75 -0.75q1.03125 1.1875 1.84375 2.3125q0.296875 -1.78125 0.453125 -3.640625l1.265625 0.296875q0.59375 0.21875 -0.078125 0.4375q-0.21875 1.78125 -0.59375 4.09375q1.03125 1.40625 1.921875 2.734375l-0.734375 1.265625q-0.8125 -1.1875 -1.640625 -2.375zm-3.859375 -7.5625l0 13.734375l-1.484375 0l0 -15.15625l15.375 0l0 13.8125q0 1.1875 -1.125 1.1875l-1.84375 0l-0.296875 -1.40625l1.546875 0q0.234375 0 0.234375 -0.234375l0 -11.9375l-12.40625 0zm8.765625 5.1875q0.4375 -2.21875 0.59375 -4.15625l1.1875 0.15625q0.734375 0.21875 0 0.515625q-0.21875 2.078125 -0.8125 4.59375q1.109375 1.5625 1.921875 2.96875l-0.734375 1.1875q-0.890625 -1.484375 -1.71875 -2.734375q-1.109375 2.890625 -2.59375 4.453125l-0.8125 -1.1875q1.484375 -1.5625 2.453125 -4.390625q-1.125 -1.78125 -2.234375 -3.109375l0.75 -0.8125q0.890625 1.03125 2.0 2.515625zm10.46875 -1.5625q0.515625 2.90625 0.8125 5.796875l-1.484375 0.140625q-0.296875 -2.734375 -0.890625 -5.640625l1.5625 -0.296875zm8.3125 -6.0l1.40625 0q0.59375 0.0625 0.078125 0.4375l0 2.96875l4.515625 0l0 1.40625l-4.515625 0l0 3.265625l3.921875 0l0 8.171875l-1.484375 0l0 -0.890625l-5.109375 0l0 1.046875l-1.484375 0l0 -8.328125l2.671875 0l0 -8.078125zm-2.96875 4.890625l-7.578125 0l0 -1.40625l3.1875 0l0 -3.34375l1.421875 0q0.59375 0.078125 0.0625 0.453125l0 2.890625l2.90625 0l0 1.40625zm-6.6875 9.875q-0.21875 0.75 -0.515625 0.078125l-0.515625 -1.484375l4.21875 -0.53125q0.59375 -3.625 0.75 -7.34375l1.859375 0.453125q0.65625 0.296875 -0.15625 0.515625q-0.296875 2.96875 -0.96875 6.234375l1.859375 -0.296875l0 1.328125l-6.53125 1.046875zm8.46875 -0.8125l5.109375 0l0 -4.453125l-5.109375 0l0 4.453125z" fill-rule="nonzero"></path><path fill="#000000" fill-opacity="0.0" d="m181.73491 205.22047l111.96849 -52.598434" fill-rule="nonzero"></path><path stroke="#000000" stroke-width="1.0" stroke-linejoin="round" stroke-linecap="butt" d="m181.73491 205.22047l106.53786 -50.047333" fill-rule="evenodd"></path><path fill="#000000" stroke="#000000" stroke-width="1.0" stroke-linecap="butt" d="m288.97507 156.66815l3.405182 -3.42453l-4.809784 0.4345398z" fill-rule="evenodd"></path><path fill="#000000" fill-opacity="0.0" d="m181.73491 277.22046l111.96849 -124.59842" fill-rule="nonzero"></path><path stroke="#000000" stroke-width="1.0" stroke-linejoin="round" stroke-linecap="butt" d="m181.73491 277.22046l107.958084 -120.13562" fill-rule="evenodd"></path><path fill="#000000" stroke="#000000" stroke-width="1.0" stroke-linecap="butt" d="m290.92154 158.18886l1.804718 -4.4794464l-4.2618103 2.271408z" fill-rule="evenodd"></path><path fill="#000000" fill-opacity="0.0" d="m181.73491 349.22046l111.96849 -196.59842" fill-rule="nonzero"></path><path stroke="#000000" stroke-width="1.0" stroke-linejoin="round" stroke-linecap="butt" d="m181.73491 349.22046l108.99913 -191.38469" fill-rule="evenodd"></path><path fill="#000000" stroke="#000000" stroke-width="1.0" stroke-linecap="butt" d="m292.1693 158.6532l0.8106079 -4.7608337l-3.6811523 3.1259766z" fill-rule="evenodd"></path><path fill="#000000" fill-opacity="0.0" d="m181.73491 205.22047l295.77954 73.76378" fill-rule="nonzero"></path><path stroke="#000000" stroke-width="1.0" stroke-linejoin="round" stroke-linecap="butt" d="m181.73491 205.22047l289.95782 72.311935" fill-rule="evenodd"></path><path fill="#000000" stroke="#000000" stroke-width="1.0" stroke-linecap="butt" d="m471.29306 279.13504l4.8029175 -0.5045471l-4.00354 -2.7007446z" fill-rule="evenodd"></path><path fill="#000000" fill-opacity="0.0" d="m181.73491 277.22046l295.77954 1.763794" fill-rule="nonzero"></path><path stroke="#000000" stroke-width="1.0" stroke-linejoin="round" stroke-linecap="butt" d="m181.73491 277.22046l289.77966 1.7279968" fill-rule="evenodd"></path><path fill="#000000" stroke="#000000" stroke-width="1.0" stroke-linecap="butt" d="m471.5047 280.6002l4.5478516 -1.6246643l-4.5281677 -1.6787415z" fill-rule="evenodd"></path><path fill="#000000" fill-opacity="0.0" d="m181.73491 349.22046l295.77954 -70.236206" fill-rule="nonzero"></path><path stroke="#000000" stroke-width="1.0" stroke-linejoin="round" stroke-linecap="butt" d="m181.73491 349.22046l289.94183 -68.849976" fill-rule="evenodd"></path><path fill="#000000" stroke="#000000" stroke-width="1.0" stroke-linecap="butt" d="m472.05838 281.9775l4.0336914 -2.6555176l-4.7969055 -0.55856323z" fill-rule="evenodd"></path><path fill="#000000" fill-opacity="0.0" d="m555.31494 278.97375l118.299255 0" fill-rule="nonzero"></path><path stroke="#000000" stroke-width="1.0" stroke-linejoin="round" stroke-linecap="butt" d="m555.31494 278.97375l112.299255 0" fill-rule="evenodd"></path><path fill="#000000" stroke="#000000" stroke-width="1.0" stroke-linecap="butt" d="m667.6142 280.6255l4.538086 -1.6517334l-4.538086 -1.6517334z" fill-rule="evenodd"></path></g></svg>

