<?xml version="1.0" standalone="yes"?>

<svg version="1.1" viewBox="0.0 0.0 817.1469816272966 498.4514435695538" fill="none" stroke="none" stroke-linecap="square" stroke-miterlimit="10" xmlns="http://www.w3.org/2000/svg" xmlns:xlink="http://www.w3.org/1999/xlink"><clipPath id="p.0"><path d="m0 0l817.147 0l0 498.45145l-817.147 0l0 -498.45145z" clip-rule="nonzero"></path></clipPath><g clip-path="url(#p.0)"><path fill="#000000" fill-opacity="0.0" d="m0 0l817.147 0l0 498.45145l-817.147 0z" fill-rule="evenodd"></path><path fill="#000000" fill-opacity="0.0" d="m450.3491 67.020996l1.0393677 407.90552" fill-rule="evenodd"></path><path stroke="#000000" stroke-width="1.0" stroke-linejoin="round" stroke-linecap="butt" d="m450.3491 67.020996l1.0393677 407.90552" fill-rule="evenodd"></path><path fill="#000000" fill-opacity="0.0" d="m386.6483 20.868767l121.79529 0l0 51.2126l-121.79529 0z" fill-rule="evenodd"></path><path fill="#000000" d="m415.0233 49.713768q-0.75 10.25 -8.0 13.625l-1.25 -2.5q6.875 -3.375 6.875 -14.25l0 -4.125l-4.75 0l0 -2.375l5.75 0l0 -5.25l2.75 0q1.25 0.25 0.125 1.0l0 4.25l9.625 0l0 2.375l-11.0 0l0 4.875l9.0 0q-0.5 11.0 -1.5 13.75q-0.75 2.125 -4.0 2.125l-2.0 0l-0.375 -2.375l1.875 0q1.625 0 2.125 -1.375q0.5 -1.5 1.0 -9.75l-6.25 0zm-7.25 2.75q1.125 6.875 -3.375 6.875l-1.5 0l-0.5 -2.375l1.25 0q2.125 0 1.75 -3.75q-0.25 -2.5 -2.5 -6.75l2.0 -7.75l-3.75 0l0 24.875l-2.5 0l0 -27.25l7.0 0l0.25 -0.5l2.625 1.375q0.5 0.5 -0.375 0.625l-2.875 8.5q2.125 4.0 2.5 6.125zm35.875 -1.125q-2.625 8.125 -12.0 11.875l-1.5 -3.125q11.75 -3.75 11.75 -14.875l0 -9.875l2.875 0.25q0.75 0.25 0 1.0l0 8.625q0 9.625 12.5 14.5l-1.25 3.125q-9.375 -3.75 -12.375 -11.5zm11.25 -8.25q-2.375 5.0 -4.0 7.125l-2.5 -1.625q2.25 -3.0 4.125 -7.75l2.75 1.375q0.75 0.375 -0.375 0.875zm-22.625 6.625q1.75 -3.25 1.625 -8.375l3.125 0.75q1.0 0.375 0 0.875q0 3.625 -1.625 7.75l-3.125 -1.0z" fill-rule="nonzero"></path><path fill="#000000" d="m486.6483 63.588768l0 -2.0l-12.375 0l0 2.125l-2.25 0q0.125 -2.25 0.125 -3.75l0 -7.625q0 -1.625 -0.125 -3.5l16.875 0q-0.125 1.625 -0.125 3.5l0 7.25q0 2.25 0.125 4.0l-2.25 0zm0 -3.875l0 -9.0l-12.375 0l0 9.0l12.375 0zm-7.5 -22.25q0 -1.75 -0.125 -3.0l2.5 0q-0.125 1.25 -0.125 3.0l3.625 0q1.875 0 4.0 -0.125l0 2.125q-2.0 -0.125 -3.875 -0.125l-3.75 0l0 5.5l5.0 0q1.875 0 3.75 -0.125l0 2.125q-1.875 -0.125 -3.75 -0.125l-10.75 0q-2.25 0 -5.0 0.125l0 -2.125q2.75 0.125 5.0 0.125l3.5 0l0 -5.5l-2.875 0q-2.0 0 -4.5 0.125l0 -2.125q2.375 0.125 4.375 0.125l3.0 0zm-8.25 18.125q-1.875 0.5 -4.375 1.6875q-2.5 1.1875 -4.0 2.0625q-0.5 -1.0 -1.5 -2.5q1.5 -0.25 4.125 -1.25l0 -10.25q-1.75 0 -3.625 0.125l0 -2.25q1.875 0.125 3.625 0.125l0 -5.125q0 -1.625 -0.125 -3.25l2.375 0q-0.125 1.625 -0.125 3.25l0 5.125q1.375 0 2.875 -0.125l0 2.25q-1.5 -0.125 -2.875 -0.125l0 9.5q0.75 -0.25 3.375 -1.375q0 0.875 0.25 2.125zm13.375 -3.25q-0.125 1.625 -0.125 3.0q0 1.375 0.125 2.75l-7.875 0q0.125 -1.25 0.125 -2.75q0 -1.625 -0.125 -3.0l7.875 0zm1.0 -12.375q1.125 0.625 2.25 1.125q-1.0 1.25 -2.5 3.625q-0.625 -0.75 -2.0 -1.25q1.375 -1.75 2.25 -3.5zm-10.25 4.75q-1.0 -2.125 -2.125 -3.375q1.125 -0.5 2.0 -1.25q1.25 1.875 2.25 3.5q-1.25 0.5 -2.125 1.125zm7.0 11.625l0 -2.25l-3.375 0l0 2.25l3.375 0z" fill-rule="nonzero"></path><path fill="#ffffff" d="m477.51443 232.02394l0 0c0 -8.645386 7.008484 -15.65387 15.65387 -15.65387l132.81827 0c4.1516724 0 8.133301 1.6492462 11.06897 4.584915c2.935608 2.935669 4.5849 6.917282 4.5849 11.068954l0 62.61354c0 8.645386 -7.008484 15.65387 -15.65387 15.65387l-132.81827 0c-8.645386 0 -15.65387 -7.008484 -15.65387 -15.65387z" fill-rule="evenodd"></path><path stroke="#000000" stroke-width="1.0" stroke-linejoin="round" stroke-linecap="butt" d="m477.51443 232.02394l0 0c0 -8.645386 7.008484 -15.65387 15.65387 -15.65387l132.81827 0c4.1516724 0 8.133301 1.6492462 11.06897 4.584915c2.935608 2.935669 4.5849 6.917282 4.5849 11.068954l0 62.61354c0 8.645386 -7.008484 15.65387 -15.65387 15.65387l-132.81827 0c-8.645386 0 -15.65387 -7.008484 -15.65387 -15.65387z" fill-rule="evenodd"></path><path fill="#000000" d="m546.2714 247.87494l-5.28125 -13.59375l1.953125 0l3.53125 9.875q0.4375 1.1875 0.71875 2.21875q0.3125 -1.109375 0.734375 -2.21875l3.671875 -9.875l1.84375 0l-5.328125 13.59375l-1.84375 0zm8.5529785 0l0 -13.59375l5.125 0q1.359375 0 2.078125 0.125q1.0 0.171875 1.671875 0.640625q0.671875 0.46875 1.078125 1.3125q0.421875 0.84375 0.421875 1.84375q0 1.734375 -1.109375 2.9375q-1.09375 1.203125 -3.984375 1.203125l-3.484375 0l0 5.53125l-1.796875 0zm1.796875 -7.140625l3.515625 0q1.75 0 2.46875 -0.640625q0.734375 -0.65625 0.734375 -1.828125q0 -0.859375 -0.4375 -1.46875q-0.421875 -0.609375 -1.125 -0.796875q-0.453125 -0.125 -1.671875 -0.125l-3.484375 0l0 4.859375zm10.0372925 2.765625l1.6875 -0.140625q0.125 1.015625 0.5625 1.671875q0.4375 0.65625 1.359375 1.0625q0.9375 0.40625 2.09375 0.40625q1.03125 0 1.8125 -0.3125q0.796875 -0.3125 1.1875 -0.84375q0.390625 -0.53125 0.390625 -1.15625q0 -0.640625 -0.375 -1.109375q-0.375 -0.484375 -1.234375 -0.8125q-0.546875 -0.21875 -2.421875 -0.65625q-1.875 -0.453125 -2.625 -0.859375q-0.96875 -0.515625 -1.453125 -1.265625q-0.46875 -0.75 -0.46875 -1.6875q0 -1.03125 0.578125 -1.921875q0.59375 -0.90625 1.703125 -1.359375q1.125 -0.46875 2.5 -0.46875q1.515625 0 2.671875 0.484375q1.15625 0.484375 1.765625 1.4375q0.625 0.9375 0.671875 2.140625l-1.71875 0.125q-0.140625 -1.28125 -0.953125 -1.9375q-0.796875 -0.671875 -2.359375 -0.671875q-1.625 0 -2.375 0.609375q-0.75 0.59375 -0.75 1.4375q0 0.734375 0.53125 1.203125q0.515625 0.46875 2.703125 0.96875q2.203125 0.5 3.015625 0.875q1.1875 0.546875 1.75 1.390625q0.578125 0.828125 0.578125 1.921875q0 1.09375 -0.625 2.0625q-0.625 0.953125 -1.796875 1.484375q-1.15625 0.53125 -2.609375 0.53125q-1.84375 0 -3.09375 -0.53125q-1.25 -0.546875 -1.96875 -1.625q-0.703125 -1.078125 -0.734375 -2.453125z" fill-rule="nonzero"></path><path fill="#3c78d8" d="m520.6798 267.5933l0 0c0 -3.1427307 2.5476685 -5.690399 5.6903687 -5.690399l66.41449 0c1.5091553 0 2.956543 0.5995178 4.0237427 1.666687c1.0671387 1.0671387 1.666626 2.5145264 1.666626 4.023712l0 22.760925c0 3.1427307 -2.5476685 5.690399 -5.6903687 5.690399l-66.41449 0c-3.1427002 0 -5.6903687 -2.5476685 -5.6903687 -5.690399z" fill-rule="evenodd"></path><path stroke="#ffffff" stroke-width="1.0" stroke-linejoin="round" stroke-linecap="butt" d="m520.6798 267.5933l0 0c0 -3.1427307 2.5476685 -5.690399 5.6903687 -5.690399l66.41449 0c1.5091553 0 2.956543 0.5995178 4.0237427 1.666687c1.0671387 1.0671387 1.666626 2.5145264 1.666626 4.023712l0 22.760925c0 3.1427307 -2.5476685 5.690399 -5.6903687 5.690399l-66.41449 0c-3.1427002 0 -5.6903687 -2.5476685 -5.6903687 -5.690399z" fill-rule="evenodd"></path><path fill="#ffffff" d="m540.08136 284.83374l-4.4375 -11.453125l1.640625 0l2.96875 8.3125q0.359375 1.0 0.609375 1.875q0.265625 -0.9375 0.609375 -1.875l3.09375 -8.3125l1.546875 0l-4.484375 11.453125l-1.546875 0zm14.21875 -1.359375l0 1.359375l-7.578125 0q-0.015625 -0.515625 0.171875 -0.984375q0.28125 -0.765625 0.921875 -1.515625q0.640625 -0.75 1.84375 -1.734375q1.859375 -1.53125 2.515625 -2.421875q0.65625 -0.90625 0.65625 -1.703125q0 -0.828125 -0.59375 -1.40625q-0.59375 -0.578125 -1.5625 -0.578125q-1.015625 0 -1.625 0.609375q-0.609375 0.609375 -0.609375 1.6875l-1.453125 -0.140625q0.15625 -1.625 1.125 -2.46875q0.96875 -0.84375 2.59375 -0.84375q1.65625 0 2.609375 0.921875q0.96875 0.90625 0.96875 2.25q0 0.6875 -0.28125 1.359375q-0.28125 0.65625 -0.9375 1.390625q-0.65625 0.734375 -2.171875 2.015625q-1.265625 1.0625 -1.625 1.453125q-0.359375 0.375 -0.59375 0.75l5.625 0zm2.1015625 1.359375l0 -11.453125l5.078125 0q1.53125 0 2.328125 0.3125q0.796875 0.296875 1.265625 1.078125q0.484375 0.78125 0.484375 1.734375q0 1.21875 -0.796875 2.0625q-0.78125 0.828125 -2.4375 1.046875q0.609375 0.296875 0.921875 0.578125q0.65625 0.609375 1.25 1.515625l2.0 3.125l-1.90625 0l-1.515625 -2.390625q-0.671875 -1.03125 -1.109375 -1.578125q-0.421875 -0.546875 -0.765625 -0.765625q-0.328125 -0.21875 -0.6875 -0.296875q-0.25 -0.0625 -0.84375 -0.0625l-1.75 0l0 5.09375l-1.515625 0zm1.515625 -6.40625l3.25 0q1.046875 0 1.625 -0.203125q0.59375 -0.21875 0.890625 -0.6875q0.3125 -0.484375 0.3125 -1.03125q0 -0.8125 -0.59375 -1.328125q-0.59375 -0.53125 -1.859375 -0.53125l-3.625 0l0 3.78125zm15.2421875 5.375q-0.78125 0.671875 -1.5 0.953125q-0.71875 0.265625 -1.546875 0.265625q-1.375 0 -2.109375 -0.671875q-0.734375 -0.671875 -0.734375 -1.703125q0 -0.609375 0.28125 -1.109375q0.28125 -0.515625 0.71875 -0.8125q0.453125 -0.3125 1.015625 -0.46875q0.421875 -0.109375 1.25 -0.203125q1.703125 -0.203125 2.515625 -0.484375q0 -0.296875 0 -0.375q0 -0.859375 -0.390625 -1.203125q-0.546875 -0.484375 -1.609375 -0.484375q-0.984375 0 -1.46875 0.359375q-0.46875 0.34375 -0.6875 1.21875l-1.375 -0.1875q0.1875 -0.875 0.609375 -1.421875q0.4375 -0.546875 1.25 -0.828125q0.8125 -0.296875 1.875 -0.296875q1.0625 0 1.71875 0.25q0.671875 0.25 0.984375 0.625q0.3125 0.375 0.4375 0.953125q0.078125 0.359375 0.078125 1.296875l0 1.875q0 1.96875 0.078125 2.484375q0.09375 0.515625 0.359375 1.0l-1.46875 0q-0.21875 -0.4375 -0.28125 -1.03125zm-0.109375 -3.140625q-0.765625 0.3125 -2.296875 0.53125q-0.875 0.125 -1.234375 0.28125q-0.359375 0.15625 -0.5625 0.46875q-0.1875 0.296875 -0.1875 0.65625q0 0.5625 0.421875 0.9375q0.4375 0.375 1.25 0.375q0.8125 0 1.4375 -0.34375q0.640625 -0.359375 0.9375 -0.984375q0.234375 -0.46875 0.234375 -1.40625l0 -0.515625zm3.5390625 7.375l-0.15625 -1.328125q0.453125 0.125 0.796875 0.125q0.46875 0 0.75 -0.15625q0.28125 -0.15625 0.46875 -0.4375q0.125 -0.203125 0.421875 -1.046875q0.046875 -0.109375 0.125 -0.34375l-3.140625 -8.3125l1.515625 0l1.71875 4.796875q0.34375 0.921875 0.609375 1.921875q0.234375 -0.96875 0.578125 -1.890625l1.765625 -4.828125l1.40625 0l-3.15625 8.4375q-0.5 1.375 -0.78125 1.890625q-0.375 0.6875 -0.859375 1.015625q-0.484375 0.328125 -1.15625 0.328125q-0.40625 0 -0.90625 -0.171875z" fill-rule="nonzero"></path><path fill="#cfe2f3" d="m29.503937 186.87946l0 0c0 -5.0648956 4.1059 -9.170792 9.170788 -9.170792l145.78441 0c2.4322357 0 4.764862 0.9662018 6.484726 2.6860657c1.7198486 1.7198486 2.6860657 4.052475 2.6860657 6.484726l0 36.682037c0 5.0648956 -4.1059113 9.170792 -9.170792 9.170792l-145.78441 0c-5.064888 0 -9.170788 -4.105896 -9.170788 -9.170792z" fill-rule="evenodd"></path><path stroke="#000000" stroke-width="1.0" stroke-linejoin="round" stroke-linecap="butt" d="m29.503937 186.87946l0 0c0 -5.0648956 4.1059 -9.170792 9.170788 -9.170792l145.78441 0c2.4322357 0 4.764862 0.9662018 6.484726 2.6860657c1.7198486 1.7198486 2.6860657 4.052475 2.6860657 6.484726l0 36.682037c0 5.0648956 -4.1059113 9.170792 -9.170792 9.170792l-145.78441 0c-5.064888 0 -9.170788 -4.105896 -9.170788 -9.170792z" fill-rule="evenodd"></path><path fill="#000000" d="m56.549343 207.5311l-4.8125 0l0 5.65625l-1.484375 0l0 -5.65625l-4.453125 0q-0.15625 3.859375 -2.3125 6.171875l-1.1875 -1.1875q2.015625 -2.234375 2.015625 -5.203125l0 -9.5l13.71875 0l0 14.171875q0 1.203125 -1.1875 1.203125l-2.078125 0l-0.359375 -1.640625l1.84375 0q0.296875 0 0.296875 -0.296875l0 -3.71875zm-10.75 -4.15625l0 2.75l4.453125 0l0 -2.75l-4.453125 0zm0 -4.15625l0 2.75l4.453125 0l0 -2.75l-4.453125 0zm5.9375 4.15625l0 2.75l4.8125 0l0 -2.75l-4.8125 0zm0 -4.15625l0 2.75l4.8125 0l0 -2.75l-4.8125 0z" fill-rule="nonzero"></path><path fill="#000000" d="m77.3306 200.10922q-0.0625 1.78125 -0.0625 4.09375q0 2.21875 0.0625 3.484375l-1.625 0l0 -1.109375l-10.3125 0q-0.296875 2.375 -0.75 3.5625q-0.4375 1.1875 -0.9687538 2.109375q-0.515625 0.9375 -1.109375 1.75q-0.734375 -0.59375 -1.625 -0.890625q1.484375 -1.5625 2.03125 -2.9375q0.5625 -1.375 0.75 -2.59375q0.1875 -1.234375 0.1875 -2.640625q0 -1.40625 -0.078125 -4.828125l13.500004 0zm-1.703125 5.125l0 -3.78125l-10.3125 0l0 3.78125l10.3125 0zm-5.34375 -8.75q0.890625 1.78125 1.265625 2.8125q-0.96875 0.21875 -1.484375 0.515625q-0.515625 -1.546875 -1.1875 -2.734375q0.734375 -0.234375 1.40625 -0.59375z" fill-rule="nonzero"></path><path fill="#000000" d="m83.998276 212.14047l5.234375 -13.59375l1.9375 0l5.5625 13.59375l-2.046875 0l-1.59375 -4.125l-5.6875 0l-1.484375 4.125l-1.921875 0zm3.921875 -5.578125l4.609375 0l-1.40625 -3.78125q-0.65625 -1.703125 -0.96875 -2.8125q-0.265625 1.3125 -0.734375 2.59375l-1.5 4.0z" fill-rule="nonzero"></path><path fill="#3c78d8" d="m103.93964 193.84001l0 0c0 -3.1427307 2.547676 -5.690399 5.690399 -5.690399l66.414474 0c1.5091858 0 2.9565582 0.5995178 4.023712 1.6666718c1.0671692 1.0671539 1.666687 2.5145416 1.666687 4.0237274l0 22.760925c0 3.1427155 -2.5476837 5.690399 -5.690399 5.690399l-66.414474 0c-3.142723 0 -5.690399 -2.5476837 -5.690399 -5.690399z" fill-rule="evenodd"></path><path stroke="#ffffff" stroke-width="1.0" stroke-linejoin="round" stroke-linecap="butt" d="m103.93964 193.84001l0 0c0 -3.1427307 2.547676 -5.690399 5.690399 -5.690399l66.414474 0c1.5091858 0 2.9565582 0.5995178 4.023712 1.6666718c1.0671692 1.0671539 1.666687 2.5145416 1.666687 4.0237274l0 22.760925c0 3.1427155 -2.5476837 5.690399 -5.690399 5.690399l-66.414474 0c-3.142723 0 -5.690399 -2.5476837 -5.690399 -5.690399z" fill-rule="evenodd"></path><path fill="#ffffff" d="m122.39977 210.95547q1.0625 -0.8125 1.84375 -1.65625q0.78125 -0.84375 1.34375 -2.03125q-1.125 -1.75 -2.4375 -3.0q0.625 -0.25 1.125 -0.6875q0.9375 1.0 1.9375 2.3125q0.375 -1.6875 0.375 -3.5625l-1.8125 0q-1.0 0 -1.875 0.0625l0 -1.1875q1.125 0.0625 1.875 0.0625l2.375 0q0.6875 0 1.7499924 -0.0625l0 1.1875q-0.5 -0.0625 -1.2499924 -0.0625q-0.0625 2.5625 -0.625 4.625q0.9999924 1.25 1.9999924 2.75q-0.5625 0.3125 -1.1874924 1.0q-0.6875 -1.4375 -1.375 -2.4375q-0.625 1.125 -1.28125 1.96875q-0.65625 0.84375 -1.40625 1.59375q-0.4375 -0.625 -1.375 -0.875zm11.374992 -13.0q-0.0625 0.8125 -0.0625 1.875l0 11.1875q0 1.0 -0.46875 1.25q-0.46875 0.25 -1.90625 0.5q-0.125 -0.625 -0.6875 -1.5625q1.125 0.125 1.53125 0q0.40625 -0.125 0.40625 -0.5625l0 -10.6875q0 -1.1875 -0.0625 -2.0l1.25 0zm-2.6875 1.9375q-0.0625 1.0625 -0.0625 1.8125l0 4.8125q0 1.1875 0.0625 2.625l-1.375 0q0.0625 -1.4375 0.0625 -2.625l0 -4.75q0 -1.0625 -0.0625 -1.875l1.375 0zm-11.749992 11.5q0.6875 -0.8125 1.21875 -2.34375q0.53125 -1.53125 0.84375 -2.90625q0.75 0.5625 1.25 0.6875q-1.0 2.4375 -1.3125 3.53125q-0.3125 1.09375 -0.5 1.90625q-0.6875 -0.5625 -1.5 -0.875zm1.5625 -13.125q1.125 0.75 2.0625 1.625q-0.4375 0.375 -0.875 1.0q-0.8125 -0.8125 -1.9375 -1.6875q0.4375 -0.5 0.75 -0.9375zm5.25 -0.3125q0.4375 1.3125 0.75 2.3125q-0.6875 0.125 -1.3125 0.4375q-0.25 -1.1875 -0.6875 -2.375q0.5625 -0.125 1.25 -0.375zm-5.875 4.625q0.875 0.5 2.1875 1.375q-0.4375 0.4375 -0.8125 1.0625q-0.75 -0.75 -2.125 -1.4375q0.4375 -0.5625 0.75 -1.0zm26.937492 2.0625q-0.125 0.625 -0.125 1.4375l0 1.75q0 0.75 0.0625 1.5625l-1.1875 0l0 -3.75l-6.625 0l0 4.0l-1.3125 0q0.125 -0.9375 0.125 -1.625l0 -1.75q0 -0.75 -0.0625 -1.625l9.125 0zm-3.1875 -6.75q0.6875 0.25 1.4375 0.4375q-0.3125 0.25 -0.8125 1.5625l3.1875 0q0.875 0 2.0 -0.0625l0 1.1875q-1.125 -0.125 -2.0 -0.125l-3.5625 0q-0.5 1.1875 -1.1875 2.25q-0.6875 -0.3125 -1.1875 -0.4375q0.75 -0.9375 1.28125 -2.1875q0.53125 -1.25 0.84375 -2.625zm0.4375 10.3125q-0.1875 0.5625 -0.125 1.375l0 0.875q0 0.8125 0.875 0.875l2.3125 0q0.9375 -0.0625 1.1875 -0.625q0.25 -0.5625 0.1875 -1.25q0.5625 0.4375 1.375 0.6875q-0.3125 1.25 -0.78125 1.6875q-0.46875 0.4375 -1.28125 0.4375l-3.375 0q-1.625 0 -1.625 -1.1875l0 -1.6875q-0.0625 -0.6875 -0.125 -1.1875l1.375 0zm-1.25 -1.0q-0.5 0.3125 -0.6875 1.125q-0.1875 0.8125 -0.84375 1.65625q-0.65625 0.84375 -1.8125 1.5625q-1.15625 0.71875 -3.40625 1.15625q-0.25 -0.625 -0.9375 -1.1875q2.25 -0.25 3.46875 -0.78125q1.21875 -0.53125 1.9375 -1.71875q0.71875 -1.1875 0.78125 -2.5625q0.6875 0.375 1.5 0.75zm-2.0 -9.0q-0.125 0.8125 -0.125 1.875l0 1.875q0 0.875 0.125 1.9375l-1.3125 0q0.0625 -1.0625 0.0625 -1.9375l0 -1.875q0 -0.9375 -0.0625 -1.875l1.3125 0zm-3.0625 0.375q-0.125 0.8125 -0.125 1.6875l0 1.75q0 0.75 0.125 1.6875l-1.3125 0q0.0625 -0.9375 0.0625 -1.6875l0 -1.75q0 -1.1875 -0.0625 -1.6875l1.3125 0zm10.1875 4.625q-0.4375 0.5 -0.8125 0.9375q-1.1875 -1.0625 -2.4375 -2.0q0.3125 -0.375 0.6875 -0.8125q1.25 0.8125 2.5625 1.875z" fill-rule="nonzero"></path><path fill="#ffffff" d="m159.27477 202.39297q0.5 0.125 0 0.375q-0.125 0.5625 -0.3125 1.0625l6.625 0l0 1.1875l-4.75 0q2.1875 1.5 5.375 2.0625l-0.3125 1.3125q-1.25 -0.25 -1.75 -0.5l0 4.25l-1.25 0l0 -0.6875l-2.1875 0l0 0.875l-1.25 0l0 -5.0l3.25 0q-1.8125 -0.75 -3.3125 -2.3125l-1.0 0q-1.0 1.4375 -2.6875 2.3125l2.5 0l0 4.875l-1.25 0l0 -0.75l-2.125 0l0 0.9375l-1.25 0l0 -4.125q-0.5625 0.3125 -1.6875 0.5625l-0.4375 -1.3125q3.375 -0.5 5.5 -2.5l-4.875 0l0 -1.1875l5.625 0q0.375 -0.6875 0.5 -1.5l1.0625 0.0625zm-1.25 0.3125l-1.25 0l0 -0.3125l-2.4375 0l0 0.5625l-1.25 0l0 -4.375l4.9375 0l0 4.125zm1.5625 -4.125l5.0 0l0 4.125l-1.25 0l0 -0.3125l-2.5 0l0 0.5625l-1.25 0l0 -4.375zm3.3125 11.875l0 -2.125l-2.1875 0l0 2.125l2.1875 0zm-6.125 -9.0625l0 -1.8125l-2.4375 0l0 1.8125l2.4375 0zm6.5625 -1.8125l-2.5 0l0 1.8125l2.5 0l0 -1.8125zm-6.375 10.875l0 -2.125l-2.125 0l0 2.125l2.125 0z" fill-rule="nonzero"></path><path fill="#cfe2f3" d="m29.503937 258.87946l0 0c0 -5.0648956 4.1059 -9.170792 9.170788 -9.170792l145.78441 0c2.4322357 0 4.764862 0.9662018 6.484726 2.6860657c1.7198486 1.7198486 2.6860657 4.052475 2.6860657 6.484726l0 36.682037c0 5.0648804 -4.1059113 9.170776 -9.170792 9.170776l-145.78441 0c-5.064888 0 -9.170788 -4.105896 -9.170788 -9.170776z" fill-rule="evenodd"></path><path stroke="#000000" stroke-width="1.0" stroke-linejoin="round" stroke-linecap="butt" d="m29.503937 258.87946l0 0c0 -5.0648956 4.1059 -9.170792 9.170788 -9.170792l145.78441 0c2.4322357 0 4.764862 0.9662018 6.484726 2.6860657c1.7198486 1.7198486 2.6860657 4.052475 2.6860657 6.484726l0 36.682037c0 5.0648804 -4.1059113 9.170776 -9.170792 9.170776l-145.78441 0c-5.064888 0 -9.170788 -4.105896 -9.170788 -9.170776z" fill-rule="evenodd"></path><path fill="#000000" d="m56.549343 279.5311l-4.8125 0l0 5.65625l-1.484375 0l0 -5.65625l-4.453125 0q-0.15625 3.859375 -2.3125 6.171875l-1.1875 -1.1875q2.015625 -2.234375 2.015625 -5.203125l0 -9.5l13.71875 0l0 14.171875q0 1.203125 -1.1875 1.203125l-2.078125 0l-0.359375 -1.640625l1.84375 0q0.296875 0 0.296875 -0.296875l0 -3.71875zm-10.75 -4.15625l0 2.75l4.453125 0l0 -2.75l-4.453125 0zm0 -4.15625l0 2.75l4.453125 0l0 -2.75l-4.453125 0zm5.9375 4.15625l0 2.75l4.8125 0l0 -2.75l-4.8125 0zm0 -4.15625l0 2.75l4.8125 0l0 -2.75l-4.8125 0z" fill-rule="nonzero"></path><path fill="#000000" d="m77.3306 272.10922q-0.0625 1.78125 -0.0625 4.09375q0 2.21875 0.0625 3.484375l-1.625 0l0 -1.109375l-10.3125 0q-0.296875 2.375 -0.75 3.5625q-0.4375 1.1875 -0.9687538 2.109375q-0.515625 0.9375 -1.109375 1.75q-0.734375 -0.59375 -1.625 -0.890625q1.484375 -1.5625 2.03125 -2.9375q0.5625 -1.375 0.75 -2.59375q0.1875 -1.234375 0.1875 -2.640625q0 -1.40625 -0.078125 -4.828125l13.500004 0zm-1.703125 5.125l0 -3.78125l-10.3125 0l0 3.78125l10.3125 0zm-5.34375 -8.75q0.890625 1.78125 1.265625 2.8125q-0.96875 0.21875 -1.484375 0.515625q-0.515625 -1.546875 -1.1875 -2.734375q0.734375 -0.234375 1.40625 -0.59375z" fill-rule="nonzero"></path><path fill="#000000" d="m85.42015 284.14047l0 -13.59375l5.109375 0q1.546875 0 2.484375 0.40625q0.953125 0.40625 1.484375 1.265625q0.53125 0.859375 0.53125 1.796875q0 0.875 -0.46875 1.65625q-0.46875 0.765625 -1.4375 1.234375q1.234375 0.359375 1.890625 1.234375q0.671875 0.875 0.671875 2.0625q0 0.953125 -0.40625 1.78125q-0.390625 0.8125 -0.984375 1.265625q-0.59375 0.4375 -1.5 0.671875q-0.890625 0.21875 -2.1875 0.21875l-5.1875 0zm1.796875 -7.890625l2.9375 0q1.203125 0 1.71875 -0.15625q0.6875 -0.203125 1.03125 -0.671875q0.359375 -0.46875 0.359375 -1.1875q0 -0.671875 -0.328125 -1.1875q-0.328125 -0.515625 -0.9375 -0.703125q-0.59375 -0.203125 -2.0625 -0.203125l-2.71875 0l0 4.109375zm0 6.28125l3.390625 0q0.875 0 1.21875 -0.0625q0.625 -0.109375 1.046875 -0.359375q0.421875 -0.265625 0.6875 -0.765625q0.265625 -0.5 0.265625 -1.140625q0 -0.765625 -0.390625 -1.328125q-0.390625 -0.5625 -1.078125 -0.78125q-0.6875 -0.234375 -1.984375 -0.234375l-3.15625 0l0 4.671875z" fill-rule="nonzero"></path><path fill="#3c78d8" d="m103.93964 265.84l0 0c0 -3.1427002 2.547676 -5.690399 5.690399 -5.690399l66.414474 0c1.5091858 0 2.9565582 0.5995178 4.023712 1.666687c1.0671692 1.0671692 1.666687 2.5145264 1.666687 4.023712l0 22.760925c0 3.1427307 -2.5476837 5.6904297 -5.690399 5.6904297l-66.414474 0c-3.142723 0 -5.690399 -2.547699 -5.690399 -5.6904297z" fill-rule="evenodd"></path><path stroke="#ffffff" stroke-width="1.0" stroke-linejoin="round" stroke-linecap="butt" d="m103.93964 265.84l0 0c0 -3.1427002 2.547676 -5.690399 5.690399 -5.690399l66.414474 0c1.5091858 0 2.9565582 0.5995178 4.023712 1.666687c1.0671692 1.0671692 1.666687 2.5145264 1.666687 4.023712l0 22.760925c0 3.1427307 -2.5476837 5.6904297 -5.690399 5.6904297l-66.414474 0c-3.142723 0 -5.690399 -2.547699 -5.690399 -5.6904297z" fill-rule="evenodd"></path><path fill="#ffffff" d="m128.83727 271.83047q5.375 -0.0625 10.1875 -1.25l0.8125 1.0q0.4375 0.5625 -0.3125 0.375q-2.0 0.4375 -4.0 0.625l0 2.25l4.9375 0l0 1.1875l-4.9375 0l0 2.125l6.25 0l0 1.1875l-6.25 0l0 3.75q0 1.125 -1.0625 1.125l-1.625 0l-0.3125 -1.375l1.5625 0q0.1875 0 0.1875 -0.1875l0 -3.3125l-6.3749924 0l0 -1.1875l6.3749924 0l0 -2.125l-5.0625 0l0 -1.1875l5.0625 0l0 -2.0625q-2.625 0.25 -5.125 0.25l-0.3125 -1.1875zm19.5 11.375q2.3125 -1.0625 2.3125 -4.6875l0 -7.1875l4.875 0l0 10.8125q0 0.5 0.4375 0.5l0.375 0q0.3125 0 0.375 -0.4375l0.125 -1.3125l1.3125 0.5l-0.25 1.5625q-0.125 0.875 -1.0 0.875l-1.5 0q-1.125 0 -1.125 -1.0625l0 -10.25l-2.375 0l0 5.9375q0 4.5 -2.6875 5.9375l-0.875 -1.1875zm-0.375 1.1875l-1.25 0l0 -6.375q-0.875 2.0 -2.1875 3.4375l-0.8125 -1.375q2.5 -2.5625 2.875 -5.3125l-2.5 0l0 -1.1875l2.625 0l0 -3.3125l1.1875 0q0.625 0.0625 0.0625 0.375l0 2.9375l2.1875 0l0 1.1875l-2.1875 0l0 1.875q1.125 0.5 2.25 1.375l-0.6875 1.4375q-0.75 -0.8125 -1.5625 -1.5l0 6.4375z" fill-rule="nonzero"></path><path fill="#cfe2f3" d="m29.503937 330.87946l0 0c0 -5.0648804 4.1059 -9.170807 9.170788 -9.170807l145.78441 0c2.4322357 0 4.764862 0.96621704 6.484726 2.6860657c1.7198486 1.7198792 2.6860657 4.05249 2.6860657 6.484741l0 36.682037c0 5.0648804 -4.1059113 9.170776 -9.170792 9.170776l-145.78441 0c-5.064888 0 -9.170788 -4.105896 -9.170788 -9.170776z" fill-rule="evenodd"></path><path stroke="#000000" stroke-width="1.0" stroke-linejoin="round" stroke-linecap="butt" d="m29.503937 330.87946l0 0c0 -5.0648804 4.1059 -9.170807 9.170788 -9.170807l145.78441 0c2.4322357 0 4.764862 0.96621704 6.484726 2.6860657c1.7198486 1.7198792 2.6860657 4.05249 2.6860657 6.484741l0 36.682037c0 5.0648804 -4.1059113 9.170776 -9.170792 9.170776l-145.78441 0c-5.064888 0 -9.170788 -4.105896 -9.170788 -9.170776z" fill-rule="evenodd"></path><path fill="#000000" d="m56.549343 351.5311l-4.8125 0l0 5.65625l-1.484375 0l0 -5.65625l-4.453125 0q-0.15625 3.859375 -2.3125 6.171875l-1.1875 -1.1875q2.015625 -2.234375 2.015625 -5.203125l0 -9.5l13.71875 0l0 14.171875q0 1.203125 -1.1875 1.203125l-2.078125 0l-0.359375 -1.640625l1.84375 0q0.296875 0 0.296875 -0.296875l0 -3.71875zm-10.75 -4.15625l0 2.75l4.453125 0l0 -2.75l-4.453125 0zm0 -4.15625l0 2.75l4.453125 0l0 -2.75l-4.453125 0zm5.9375 4.15625l0 2.75l4.8125 0l0 -2.75l-4.8125 0zm0 -4.15625l0 2.75l4.8125 0l0 -2.75l-4.8125 0z" fill-rule="nonzero"></path><path fill="#000000" d="m77.3306 344.10922q-0.0625 1.78125 -0.0625 4.09375q0 2.21875 0.0625 3.484375l-1.625 0l0 -1.109375l-10.3125 0q-0.296875 2.375 -0.75 3.5625q-0.4375 1.1875 -0.9687538 2.109375q-0.515625 0.9375 -1.109375 1.75q-0.734375 -0.59375 -1.625 -0.890625q1.484375 -1.5625 2.03125 -2.9375q0.5625 -1.375 0.75 -2.59375q0.1875 -1.234375 0.1875 -2.640625q0 -1.40625 -0.078125 -4.828125l13.500004 0zm-1.703125 5.125l0 -3.78125l-10.3125 0l0 3.78125l10.3125 0zm-5.34375 -8.75q0.890625 1.78125 1.265625 2.8125q-0.96875 0.21875 -1.484375 0.515625q-0.515625 -1.546875 -1.1875 -2.734375q0.734375 -0.234375 1.40625 -0.59375z" fill-rule="nonzero"></path><path fill="#000000" d="m95.2014 351.37485l1.796875 0.453125q-0.5625 2.21875 -2.03125 3.390625q-1.46875 1.15625 -3.59375 1.15625q-2.203125 0 -3.578125 -0.890625q-1.375 -0.90625 -2.09375 -2.59375q-0.71875 -1.703125 -0.71875 -3.65625q0 -2.125 0.796875 -3.703125q0.8125 -1.578125 2.3125 -2.390625q1.5 -0.828125 3.296875 -0.828125q2.046875 0 3.4375 1.046875q1.390625 1.03125 1.9375 2.90625l-1.765625 0.421875q-0.46875 -1.484375 -1.375 -2.15625q-0.90625 -0.6875 -2.265625 -0.6875q-1.5625 0 -2.625 0.75q-1.046875 0.75 -1.484375 2.03125q-0.421875 1.265625 -0.421875 2.609375q0 1.734375 0.5 3.03125q0.515625 1.28125 1.578125 1.921875q1.078125 0.640625 2.3125 0.640625q1.515625 0 2.5625 -0.859375q1.046875 -0.875 1.421875 -2.59375z" fill-rule="nonzero"></path><path fill="#3c78d8" d="m103.93964 337.84l0 0c0 -3.1427002 2.547676 -5.690399 5.690399 -5.690399l66.414474 0c1.5091858 0 2.9565582 0.5995178 4.023712 1.666687c1.0671692 1.0671692 1.666687 2.5145264 1.666687 4.023712l0 22.760925c0 3.1427307 -2.5476837 5.6904297 -5.690399 5.6904297l-66.414474 0c-3.142723 0 -5.690399 -2.547699 -5.690399 -5.6904297z" fill-rule="evenodd"></path><path stroke="#ffffff" stroke-width="1.0" stroke-linejoin="round" stroke-linecap="butt" d="m103.93964 337.84l0 0c0 -3.1427002 2.547676 -5.690399 5.690399 -5.690399l66.414474 0c1.5091858 0 2.9565582 0.5995178 4.023712 1.666687c1.0671692 1.0671692 1.666687 2.5145264 1.666687 4.023712l0 22.760925c0 3.1427307 -2.5476837 5.6904297 -5.690399 5.6904297l-66.414474 0c-3.142723 0 -5.690399 -2.547699 -5.690399 -5.6904297z" fill-rule="evenodd"></path><path fill="#ffffff" d="m131.52477 354.51797l0 -2.8125l-3.125 0l0 2.8125l3.125 0zm1.25 1.6875l-1.25 0l0 -0.6875l-3.125 0l0 0.875l-1.2499924 0l0 -5.6875l5.6249924 0l0 5.5zm-4.4375 -11.625q0.3125 0.875 1.5625 2.25q1.125 -1.5 1.4375 -2.25l-3.0 0zm1.5625 4.0q-2.1874924 2.0 -4.0624924 2.6875l-0.5625 -1.25q1.75 -0.5625 3.8124924 -2.375q-0.5 -0.5 -1.3124924 -1.8125q-0.625 1.4375 -1.25 2.0625l-0.9375 -0.9375q1.5 -2.0 2.3125 -5.0l1.3124924 0.375q0.25 0.25 -0.1875 0.3125l-0.3125 0.75l3.1875 0l0.1875 -0.3125l1.0 0.8125q0.25 0.1875 -0.25 0.375q-0.875 2.0 -2.0625 3.375q2.125 1.625 3.625 2.125l-0.5 1.375q-1.5 -0.5 -4.0 -2.5625zm-4.5624924 -5.625l0 4.625l-1.5625 0l0 2.3125l1.4375 0l0 1.1875l-1.4375 0l0 2.875l2.1875 -0.6875l0.25 1.125l-5.75 1.625q-0.0625 0.5 -0.3125 0.25l-0.5 -1.375l0.75 -0.125l0 -5.8125l1.1875 0q0.5 0.0625 0.0625 0.375l0 5.125l0.875 -0.1875l0 -6.6875l-1.125 0l-1.0625 0l0 -4.625l5.0 0zm-1.25 3.625l0 -2.625l-2.5 0l0 2.625l2.5 0zm14.187492 7.5l4.0 0l0 -3.25l-4.0 0l0 3.25zm0 -4.4375l4.0 0l0 -3.25l-4.0 0l0 3.25zm9.25 0l0 -3.25l-4.0 0l0 3.25l4.0 0zm-4.0 4.4375l4.0 0l0 -3.25l-4.0 0l0 3.25zm-6.5 2.1875l0 -11.0625l5.25 0l0 -2.9375l1.1875 0q0.5 0.0625 0.0625 0.375l0 2.5625l5.25 0l0 10.8125l-1.25 0l0 -0.75l-9.25 0l0 1.0l-1.25 0zm22.25 -9.875q0.5 0.125 0 0.375q-0.125 0.5625 -0.3125 1.0625l6.625 0l0 1.1875l-4.75 0q2.1875 1.5 5.375 2.0625l-0.3125 1.3125q-1.25 -0.25 -1.75 -0.5l0 4.25l-1.25 0l0 -0.6875l-2.1875 0l0 0.875l-1.25 0l0 -5.0l3.25 0q-1.8125 -0.75 -3.3125 -2.3125l-1.0 0q-1.0 1.4375 -2.6875 2.3125l2.5 0l0 4.875l-1.25 0l0 -0.75l-2.125 0l0 0.9375l-1.25 0l0 -4.125q-0.5625 0.3125 -1.6875 0.5625l-0.4375 -1.3125q3.375 -0.5 5.5 -2.5l-4.875 0l0 -1.1875l5.625 0q0.375 -0.6875 0.5 -1.5l1.0625 0.0625zm-1.25 0.3125l-1.25 0l0 -0.3125l-2.4375 0l0 0.5625l-1.25 0l0 -4.375l4.9375 0l0 4.125zm1.5625 -4.125l5.0 0l0 4.125l-1.25 0l0 -0.3125l-2.5 0l0 0.5625l-1.25 0l0 -4.375zm3.3125 11.875l0 -2.125l-2.1875 0l0 2.125l2.1875 0zm-6.125 -9.0625l0 -1.8125l-2.4375 0l0 1.8125l2.4375 0zm6.5625 -1.8125l-2.5 0l0 1.8125l2.5 0l0 -1.8125zm-6.375 10.875l0 -2.125l-2.125 0l0 2.125l2.125 0z" fill-rule="nonzero"></path><path fill="#6aa84f" d="m301.41733 89.78242l0 0c0 -7.4132233 6.009613 -13.422836 13.422821 -13.422836l74.66614 0c3.559967 0 6.974121 1.4141846 9.491394 3.9314575c2.517273 2.517273 3.9314575 5.931427 3.9314575 9.491379l0 53.68975c0 7.4132385 -6.009613 13.422852 -13.422852 13.422852l-74.66614 0l0 0c-7.413208 0 -13.422821 -6.009613 -13.422821 -13.422852z" fill-rule="evenodd"></path><path stroke="#000000" stroke-width="1.0" stroke-linejoin="round" stroke-linecap="butt" d="m301.41733 89.78242l0 0c0 -7.4132233 6.009613 -13.422836 13.422821 -13.422836l74.66614 0c3.559967 0 6.974121 1.4141846 9.491394 3.9314575c2.517273 2.517273 3.9314575 5.931427 3.9314575 9.491379l0 53.68975c0 7.4132385 -6.009613 13.422852 -13.422852 13.422852l-74.66614 0l0 0c-7.413208 0 -13.422821 -6.009613 -13.422821 -13.422852z" fill-rule="evenodd"></path><path fill="#ffffff" d="m340.2201 118.422295q-0.890625 2.296875 -2.671875 4.3125l-0.8125 -1.125q1.703125 -2.078125 2.59375 -4.375q-1.109375 -1.625 -2.296875 -3.1875l0.75 -0.75q1.03125 1.1875 1.84375 2.3125q0.296875 -1.78125 0.453125 -3.640625l1.265625 0.296875q0.59375 0.21875 -0.078125 0.4375q-0.21875 1.78125 -0.59375 4.09375q1.03125 1.40625 1.921875 2.734375l-0.734375 1.265625q-0.8125 -1.1875 -1.640625 -2.375zm-3.859375 -7.5625l0 13.734375l-1.484375 0l0 -15.15625l15.375 0l0 13.8125q0 1.1875 -1.125 1.1875l-1.84375 0l-0.296875 -1.40625l1.546875 0q0.234375 0 0.234375 -0.234375l0 -11.9375l-12.40625 0zm8.765625 5.1875q0.4375 -2.21875 0.59375 -4.15625l1.1875 0.15625q0.734375 0.21875 0 0.515625q-0.21875 2.078125 -0.8125 4.59375q1.109375 1.5625 1.921875 2.96875l-0.734375 1.1875q-0.890625 -1.484375 -1.71875 -2.734375q-1.109375 2.890625 -2.59375 4.453125l-0.8125 -1.1875q1.484375 -1.5625 2.453125 -4.390625q-1.125 -1.78125 -2.234375 -3.109375l0.75 -0.8125q0.890625 1.03125 2.0 2.515625zm10.46875 -1.5625q0.515625 2.90625 0.8125 5.796875l-1.484375 0.140625q-0.296875 -2.734375 -0.890625 -5.640625l1.5625 -0.296875zm8.3125 -6.0l1.40625 0q0.59375 0.0625 0.078125 0.4375l0 2.96875l4.515625 0l0 1.40625l-4.515625 0l0 3.265625l3.921875 0l0 8.171875l-1.484375 0l0 -0.890625l-5.109375 0l0 1.046875l-1.484375 0l0 -8.328125l2.671875 0l0 -8.078125zm-2.96875 4.890625l-7.578125 0l0 -1.40625l3.1875 0l0 -3.34375l1.421875 0q0.59375 0.078125 0.0625 0.453125l0 2.890625l2.90625 0l0 1.40625zm-6.6875 9.875q-0.21875 0.75 -0.515625 0.078125l-0.515625 -1.484375l4.21875 -0.53125q0.59375 -3.625 0.75 -7.34375l1.859375 0.453125q0.65625 0.296875 -0.15625 0.515625q-0.296875 2.96875 -0.96875 6.234375l1.859375 -0.296875l0 1.328125l-6.53125 1.046875zm8.46875 -0.8125l5.109375 0l0 -4.453125l-5.109375 0l0 4.453125z" fill-rule="nonzero"></path><path fill="#cc0000" d="m673.6142 252.12888l0 0c0 -7.4132233 6.0095825 -13.422836 13.422791 -13.422836l74.66614 0c3.5599976 0 6.974121 1.4141846 9.491394 3.9314575c2.517273 2.517273 3.9314575 5.931427 3.9314575 9.491379l0 53.68976c0 7.4132385 -6.0095825 13.422821 -13.422852 13.422821l-74.66614 0l0 0c-7.413208 0 -13.422791 -6.0095825 -13.422791 -13.422821z" fill-rule="evenodd"></path><path stroke="#000000" stroke-width="1.0" stroke-linejoin="round" stroke-linecap="butt" d="m673.6142 252.12888l0 0c0 -7.4132233 6.0095825 -13.422836 13.422791 -13.422836l74.66614 0c3.5599976 0 6.974121 1.4141846 9.491394 3.9314575c2.517273 2.517273 3.9314575 5.931427 3.9314575 9.491379l0 53.68976c0 7.4132385 -6.0095825 13.422821 -13.422852 13.422821l-74.66614 0l0 0c-7.413208 0 -13.422791 -6.0095825 -13.422791 -13.422821z" fill-rule="evenodd"></path><path fill="#ffffff" d="m712.41693 280.76874q-0.890625 2.296875 -2.671875 4.3125l-0.8125 -1.125q1.703125 -2.078125 2.59375 -4.375q-1.109375 -1.625 -2.296875 -3.1875l0.75 -0.75q1.03125 1.1875 1.84375 2.3125q0.296875 -1.78125 0.453125 -3.640625l1.265625 0.296875q0.59375 0.21875 -0.078125 0.4375q-0.21875 1.78125 -0.59375 4.09375q1.03125 1.40625 1.921875 2.734375l-0.734375 1.265625q-0.8125 -1.1875 -1.640625 -2.375zm-3.859375 -7.5625l0 13.734375l-1.484375 0l0 -15.15625l15.375 0l0 13.8125q0 1.1875 -1.125 1.1875l-1.84375 0l-0.296875 -1.40625l1.546875 0q0.234375 0 0.234375 -0.234375l0 -11.9375l-12.40625 0zm8.765625 5.1875q0.4375 -2.21875 0.59375 -4.15625l1.1875 0.15625q0.734375 0.21875 0 0.515625q-0.21875 2.078125 -0.8125 4.59375q1.109375 1.5625 1.921875 2.96875l-0.734375 1.1875q-0.890625 -1.484375 -1.71875 -2.734375q-1.109375 2.890625 -2.59375 4.453125l-0.8125 -1.1875q1.484375 -1.5625 2.453125 -4.390625q-1.125 -1.78125 -2.234375 -3.109375l0.75 -0.8125q0.890625 1.03125 2.0 2.515625zm10.46875 -1.5625q0.515625 2.90625 0.8125 5.796875l-1.484375 0.140625q-0.296875 -2.734375 -0.890625 -5.640625l1.5625 -0.296875zm8.3125 -6.0l1.40625 0q0.59375 0.0625 0.078125 0.4375l0 2.96875l4.515625 0l0 1.40625l-4.515625 0l0 3.265625l3.921875 0l0 8.171875l-1.484375 0l0 -0.890625l-5.109375 0l0 1.046875l-1.484375 0l0 -8.328125l2.671875 0l0 -8.078125zm-2.96875 4.890625l-7.578125 0l0 -1.40625l3.1875 0l0 -3.34375l1.421875 0q0.59375 0.078125 0.0625 0.453125l0 2.890625l2.90625 0l0 1.40625zm-6.6875 9.875q-0.21875 0.75 -0.515625 0.078125l-0.515625 -1.484375l4.21875 -0.53125q0.59375 -3.625 0.75 -7.34375l1.859375 0.453125q0.65625 0.296875 -0.15625 0.515625q-0.296875 2.96875 -0.96875 6.234375l1.859375 -0.296875l0 1.328125l-6.53125 1.046875zm8.46875 -0.8125l5.109375 0l0 -4.453125l-5.109375 0l0 4.453125z" fill-rule="nonzero"></path><path fill="#000000" fill-opacity="0.0" d="m598.47504 278.97375l75.14966 0" fill-rule="evenodd"></path><path stroke="#000000" stroke-width="1.0" stroke-linejoin="round" stroke-linecap="butt" d="m598.47504 278.97375l69.14966 0" fill-rule="evenodd"></path><path fill="#000000" stroke="#000000" stroke-width="1.0" stroke-linecap="butt" d="m667.6247 280.6255l4.538086 -1.6517334l-4.538086 -1.6517334z" fill-rule="evenodd"></path><path fill="#ffffff" d="m253.50919 231.66698l0 0c0 -8.645386 7.008484 -15.653854 15.65387 -15.653854l132.81827 0c4.151642 0 8.13327 1.6492462 11.068939 4.584915c2.935669 2.935669 4.5849 6.917282 4.5849 11.068939l0 62.61354c0 8.645386 -7.0084534 15.65387 -15.653839 15.65387l-132.81827 0c-8.645386 0 -15.65387 -7.008484 -15.65387 -15.65387z" fill-rule="evenodd"></path><path stroke="#000000" stroke-width="1.0" stroke-linejoin="round" stroke-linecap="butt" d="m253.50919 231.66698l0 0c0 -8.645386 7.008484 -15.653854 15.65387 -15.653854l132.81827 0c4.151642 0 8.13327 1.6492462 11.068939 4.584915c2.935669 2.935669 4.5849 6.917282 4.5849 11.068939l0 62.61354c0 8.645386 -7.0084534 15.65387 -15.653839 15.65387l-132.81827 0c-8.645386 0 -15.65387 -7.008484 -15.65387 -15.65387z" fill-rule="evenodd"></path><path fill="#000000" d="m322.2662 247.51797l-5.28125 -13.59375l1.953125 0l3.53125 9.875q0.4375 1.1875 0.71875 2.21875q0.3125 -1.109375 0.734375 -2.21875l3.671875 -9.875l1.84375 0l-5.328125 13.59375l-1.84375 0zm8.552948 0l0 -13.59375l5.125 0q1.359375 0 2.078125 0.125q1.0 0.171875 1.671875 0.640625q0.671875 0.46875 1.078125 1.3125q0.421875 0.84375 0.421875 1.84375q0 1.734375 -1.109375 2.9375q-1.09375 1.203125 -3.984375 1.203125l-3.484375 0l0 5.53125l-1.796875 0zm1.796875 -7.140625l3.515625 0q1.75 0 2.46875 -0.640625q0.734375 -0.65625 0.734375 -1.828125q0 -0.859375 -0.4375 -1.46875q-0.421875 -0.609375 -1.125 -0.796875q-0.453125 -0.125 -1.671875 -0.125l-3.484375 0l0 4.859375zm10.037323 2.765625l1.6875 -0.140625q0.125 1.015625 0.5625 1.671875q0.4375 0.65625 1.359375 1.0625q0.9375 0.40625 2.09375 0.40625q1.03125 0 1.8125 -0.3125q0.796875 -0.3125 1.1875 -0.84375q0.390625 -0.53125 0.390625 -1.15625q0 -0.640625 -0.375 -1.109375q-0.375 -0.484375 -1.234375 -0.8125q-0.546875 -0.21875 -2.421875 -0.65625q-1.875 -0.453125 -2.625 -0.859375q-0.96875 -0.515625 -1.453125 -1.265625q-0.46875 -0.75 -0.46875 -1.6875q0 -1.03125 0.578125 -1.921875q0.59375 -0.90625 1.703125 -1.359375q1.125 -0.46875 2.5 -0.46875q1.515625 0 2.671875 0.484375q1.15625 0.484375 1.765625 1.4375q0.625 0.9375 0.671875 2.140625l-1.71875 0.125q-0.140625 -1.28125 -0.953125 -1.9375q-0.796875 -0.671875 -2.359375 -0.671875q-1.625 0 -2.375 0.609375q-0.75 0.59375 -0.75 1.4375q0 0.734375 0.53125 1.203125q0.515625 0.46875 2.703125 0.96875q2.203125 0.5 3.015625 0.875q1.1875 0.546875 1.75 1.390625q0.578125 0.828125 0.578125 1.921875q0 1.09375 -0.625 2.0625q-0.625 0.953125 -1.796875 1.484375q-1.15625 0.53125 -2.609375 0.53125q-1.84375 0 -3.09375 -0.53125q-1.25 -0.546875 -1.96875 -1.625q-0.703125 -1.078125 -0.734375 -2.453125z" fill-rule="nonzero"></path><path fill="#3c78d8" d="m296.67453 267.23633l0 0c0 -3.1427307 2.547699 -5.690399 5.690399 -5.690399l66.41449 0c1.5091858 0 2.9565735 0.5995178 4.023712 1.666687c1.0671692 1.0671387 1.666687 2.5145264 1.666687 4.023712l0 22.760925c0 3.1427307 -2.5476685 5.690399 -5.690399 5.690399l-66.41449 0c-3.1427002 0 -5.690399 -2.5476685 -5.690399 -5.690399z" fill-rule="evenodd"></path><path stroke="#ffffff" stroke-width="1.0" stroke-linejoin="round" stroke-linecap="butt" d="m296.67453 267.23633l0 0c0 -3.1427307 2.547699 -5.690399 5.690399 -5.690399l66.41449 0c1.5091858 0 2.9565735 0.5995178 4.023712 1.666687c1.0671692 1.0671387 1.666687 2.5145264 1.666687 4.023712l0 22.760925c0 3.1427307 -2.5476685 5.690399 -5.690399 5.690399l-66.41449 0c-3.1427002 0 -5.690399 -2.5476685 -5.690399 -5.690399z" fill-rule="evenodd"></path><path fill="#ffffff" d="m316.07608 284.4768l-4.4375 -11.453125l1.640625 0l2.96875 8.3125q0.359375 1.0 0.609375 1.875q0.265625 -0.9375 0.609375 -1.875l3.09375 -8.3125l1.546875 0l-4.484375 11.453125l-1.546875 0zm14.21875 -1.359375l0 1.359375l-7.578125 0q-0.015625 -0.515625 0.171875 -0.984375q0.28125 -0.765625 0.921875 -1.515625q0.640625 -0.75 1.84375 -1.734375q1.859375 -1.53125 2.515625 -2.421875q0.65625 -0.90625 0.65625 -1.703125q0 -0.828125 -0.59375 -1.40625q-0.59375 -0.578125 -1.5625 -0.578125q-1.015625 0 -1.625 0.609375q-0.609375 0.609375 -0.609375 1.6875l-1.453125 -0.140625q0.15625 -1.625 1.125 -2.46875q0.96875 -0.84375 2.59375 -0.84375q1.65625 0 2.609375 0.921875q0.96875 0.90625 0.96875 2.25q0 0.6875 -0.28125 1.359375q-0.28125 0.65625 -0.9375 1.390625q-0.65625 0.734375 -2.171875 2.015625q-1.265625 1.0625 -1.625 1.453125q-0.359375 0.375 -0.59375 0.75l5.625 0zm2.1015625 1.359375l0 -11.453125l5.078125 0q1.53125 0 2.328125 0.3125q0.796875 0.296875 1.265625 1.078125q0.484375 0.78125 0.484375 1.734375q0 1.21875 -0.796875 2.0625q-0.78125 0.828125 -2.4375 1.046875q0.609375 0.296875 0.921875 0.578125q0.65625 0.609375 1.25 1.515625l2.0 3.125l-1.90625 0l-1.515625 -2.390625q-0.671875 -1.03125 -1.109375 -1.578125q-0.421875 -0.546875 -0.765625 -0.765625q-0.328125 -0.21875 -0.6875 -0.296875q-0.25 -0.0625 -0.84375 -0.0625l-1.75 0l0 5.09375l-1.515625 0zm1.515625 -6.40625l3.25 0q1.046875 0 1.625 -0.203125q0.59375 -0.21875 0.890625 -0.6875q0.3125 -0.484375 0.3125 -1.03125q0 -0.8125 -0.59375 -1.328125q-0.59375 -0.53125 -1.859375 -0.53125l-3.625 0l0 3.78125zm15.2421875 5.375q-0.78125 0.671875 -1.5 0.953125q-0.71875 0.265625 -1.546875 0.265625q-1.375 0 -2.109375 -0.671875q-0.734375 -0.671875 -0.734375 -1.703125q0 -0.609375 0.28125 -1.109375q0.28125 -0.515625 0.71875 -0.8125q0.453125 -0.3125 1.015625 -0.46875q0.421875 -0.109375 1.25 -0.203125q1.703125 -0.203125 2.515625 -0.484375q0 -0.296875 0 -0.375q0 -0.859375 -0.390625 -1.203125q-0.546875 -0.484375 -1.609375 -0.484375q-0.984375 0 -1.46875 0.359375q-0.46875 0.34375 -0.6875 1.21875l-1.375 -0.1875q0.1875 -0.875 0.609375 -1.421875q0.4375 -0.546875 1.25 -0.828125q0.8125 -0.296875 1.875 -0.296875q1.0625 0 1.71875 0.25q0.671875 0.25 0.984375 0.625q0.3125 0.375 0.4375 0.953125q0.078125 0.359375 0.078125 1.296875l0 1.875q0 1.96875 0.078125 2.484375q0.09375 0.515625 0.359375 1.0l-1.46875 0q-0.21875 -0.4375 -0.28125 -1.03125zm-0.109375 -3.140625q-0.765625 0.3125 -2.296875 0.53125q-0.875 0.125 -1.234375 0.28125q-0.359375 0.15625 -0.5625 0.46875q-0.1875 0.296875 -0.1875 0.65625q0 0.5625 0.421875 0.9375q0.4375 0.375 1.25 0.375q0.8125 0 1.4375 -0.34375q0.640625 -0.359375 0.9375 -0.984375q0.234375 -0.46875 0.234375 -1.40625l0 -0.515625zm3.5390625 7.375l-0.15625 -1.328125q0.453125 0.125 0.796875 0.125q0.46875 0 0.75 -0.15625q0.28125 -0.15625 0.46875 -0.4375q0.125 -0.203125 0.421875 -1.046875q0.046875 -0.109375 0.125 -0.34375l-3.140625 -8.3125l1.515625 0l1.71875 4.796875q0.34375 0.921875 0.609375 1.921875q0.234375 -0.96875 0.578125 -1.890625l1.765625 -4.828125l1.40625 0l-3.15625 8.4375q-0.5 1.375 -0.78125 1.890625q-0.375 0.6875 -0.859375 1.015625q-0.484375 0.328125 -1.15625 0.328125q-0.40625 0 -0.90625 -0.171875z" fill-rule="nonzero"></path><path fill="#000000" fill-opacity="0.0" d="m181.73491 205.22047l114.92912 73.38582" fill-rule="evenodd"></path><path stroke="#000000" stroke-width="1.0" stroke-linejoin="round" stroke-linecap="butt" d="m181.73491 205.22047l109.872116 70.156784" fill-rule="evenodd"></path><path fill="#000000" stroke="#000000" stroke-width="1.0" stroke-linecap="butt" d="m290.7181 276.76938l4.713806 1.0501709l-2.9359436 -3.8344421z" fill-rule="evenodd"></path><path fill="#000000" fill-opacity="0.0" d="m181.73491 277.22046l114.92912 1.3858337" fill-rule="evenodd"></path><path stroke="#000000" stroke-width="1.0" stroke-linejoin="round" stroke-linecap="butt" d="m181.73491 277.22046l108.92955 1.3135071" fill-rule="evenodd"></path><path fill="#000000" stroke="#000000" stroke-width="1.0" stroke-linecap="butt" d="m290.64456 280.18558l4.557678 -1.5968933l-4.517853 -1.7063293z" fill-rule="evenodd"></path><path fill="#000000" fill-opacity="0.0" d="m181.73491 349.22046l114.92912 -70.61417" fill-rule="evenodd"></path><path stroke="#000000" stroke-width="1.0" stroke-linejoin="round" stroke-linecap="butt" d="m181.73491 349.22046l109.81697 -67.473175" fill-rule="evenodd"></path><path fill="#000000" stroke="#000000" stroke-width="1.0" stroke-linecap="butt" d="m292.41656 283.1546l3.001892 -3.7829895l-4.731262 0.9683533z" fill-rule="evenodd"></path><path fill="#000000" fill-opacity="0.0" d="m335.57217 261.54593l16.59842 -104.66141" fill-rule="evenodd"></path><path stroke="#000000" stroke-width="1.0" stroke-linejoin="round" stroke-linecap="butt" d="m335.57217 261.54593l15.65863 -98.73547" fill-rule="evenodd"></path><path fill="#000000" stroke="#000000" stroke-width="1.0" stroke-linecap="butt" d="m352.86215 163.06917l-0.9205322 -4.740799l-2.342163 4.2233734z" fill-rule="evenodd"></path><path fill="#000000" fill-opacity="0.0" d="m374.46982 278.6168l146.20474 0.34646606" fill-rule="evenodd"></path><path stroke="#000000" stroke-width="1.0" stroke-linejoin="round" stroke-linecap="butt" d="m374.46982 278.6168l140.20474 0.33224487" fill-rule="evenodd"></path><path fill="#000000" stroke="#000000" stroke-width="1.0" stroke-linecap="butt" d="m514.67065 280.60077l4.541992 -1.6409912l-4.5341797 -1.6624756z" fill-rule="evenodd"></path></g></svg>
